<mxfile host="www.draw.io" modified="2019-12-31T03:10:45.040Z" agent="Mozilla/5.0 (Windows NT 10.0; Win64; x64) AppleWebKit/537.36 (KHTML, like Gecko) Chrome/78.0.3904.108 Safari/537.36" etag="wtRonbUmapMpQrwKRgiv" version="12.4.7" type="github">
  <diagram id="Qk6oJcfEN1Y0l9fE1bLk" name="Page-1">
    <mxGraphModel dx="1422" dy="762" grid="1" gridSize="10" guides="1" tooltips="1" connect="1" arrows="1" fold="1" page="1" pageScale="1" pageWidth="827" pageHeight="1169" math="0" shadow="0">
      <root>
        <mxCell id="0"/>
        <mxCell id="1" parent="0"/>
        <mxCell id="qmNNlYz3ffC6C_HSxfAD-1" value="" style="shape=image;verticalLabelPosition=bottom;labelBackgroundColor=#ffffff;verticalAlign=top;aspect=fixed;imageAspect=0;image=data:image/png,iVBORw0KGgoAAAANSUhEUgAAA+cAAAHDCAYAAABGXGu1AAAgAElEQVR4Aey9d5Rc53nm+dSt1F0dkRo550yAYM6ZlCjKynLQOMhe767Hs7Z3Z2fzObtn/hjP7Jw5M2dmPDvOtixZsmWLFJWZKTAhgwCIHIhExEbnrrzneb97q29XV3dXo7obIPhcCayuuvcL7+9L9/li5Ov/9vvFuvp61CcTKBSL0CUCIiACIiACIiACIiACIiACIiACIjDxBLxIBH3pDNJ9vYjV1aewYP5cNDXUI18oTHzoCkEEREAEREAEREAEREAEREAEREAERABRz0NXdy9OnzmLWF0ybsKc4rwgca7sIQIiIAIiIAIiIAIiIAIiIAIiIAKTQsDzPKBYBHV5rFgs2og5hXk+r5HzSUkBBSICIiACIiACIiACIiACIiACIiACgK/Hi/BEQwREQAREQAREQAREQAREQAREQARE4MYSkDi/sfwVugiIgAiIgAiIgAiIgAiIgAiIgAho5Fx5QAREQAREQAREQAREQAREQAREQARuNAGNnN/oFFD4IiACIiACIiACIiACIiACIiACn3gCEuef+CwgACIgAiIgAiIgAiIgAiIgAiIgAjeagMT5jU4BhS8CIiACIiACIiACIiACIiACIvCJJyBx/onPAgIgAiIgAiIgAiIgAiIgAiIgAiJwowlInN/oFFD4IiACIiACIiACIiACIiACIiACn3gCEuef+CwgACIgAiIgAiIgAiIgAiIgAiIgAjeagMT5jU4BhS8CIiACIiACIiACIiACIiACIvCJJyBx/onPAgIgAiIgAiIgAiIgAiIgAiIgAiJwownEbnQEFL4IiIAIiIAIiIAIiIAIiIAIiMAtRiASQcQ3qVgs3mLGTYw5GjmfGK7yVQREQAREQAREQAREQAREQAQmiUAggycpuFGCiUQi8DwPXjQGz4uO8vR43L657L9eizRyfr3k5E4EREAEREAEREAEREAEREAEbjCBaCyOaDSGXDaDQiF/g2MDRCjKIx6uXjiLsycOIdXYjKXrtiDPuE3ACDo7AhLJOuRyORTyOXycR+klzm949lUEREAEREAEREAEREAEREAERGBsBDgi7UWjuHLhDK6cP4PZC5ch1dyKYqEwNo/G8WmOlmczaZw6vA/bX/k+jr6/DTPnL0E8WYfFazYj098DlCa71xgwR+cjEeRzObz/zquYtWAZmqfNsJH6gjH4+E2llzivMU/IuQiIgAiIgAiIgAiIgAiIwMeHQCTiIZ5IIhaPA5HJmw5dLBaQTaeRy2VrGkHmSDGv3u5OHH3/Pex562W0XzqHe5/+ItZueRD1jS03bASdcpidBpn+Pus0OHvyMDrbL2PmvMWYMXcRkvUNKI7D6H7AoLvzGva+9RJ+/sNvW+fEvc98GQuXr7P05SyCYBQ9Go0iUVePyHhNsS8WUcjnrSOC6RnEp9ZSIHFeK0G5FwEREAEREAEREAEREAERuOkJBAIq3duNY/u249L506BgnqyLHQJzF6/EjLkLEYsnahrhpi2M++Xzp7H37ZfR09luwrO+oQXLN9xhI9U1j6BzungiaevGA3ajsvLXmi9bvwXtl8/j8kdncO7kERzZuw0b7nsca+96APnMgGge1T+wH6OITLrPxHD584VcDtcuX8CJg3tw5vhB9Pf24J4nPw+GX9/QDI6gFwo5tF+6hBMf7EZfb3e5F9f1nTMEmlqmYs7ilZjaNgf5fO66/Cl3JHFeTkTfRUAEREAEREAEREAEREAEbkkCXA/d092BXT//iYnaYGR1MoyNxZN49HO/iilts5FI1iN/ndPPXZwjSKYasGjVRsxdshIf7NiKQ7veRn1Dk80IWLxmE+Lx5HV3PlCM5/N5HP9gFzqvXkaeo/1VXnTLf13Xrtpa+GymH+dOHsZ7Lz2Pnq525LK5Mc0ciCfrMW/JKjS2THEzHYpFE+wMo66hEStuuxu3HTtg6fn+u68i09+L7s6rWLHxbrROn2XPXjhzAj/4xn9E/ziK8zmLVuDhX/gnaJu7SOK8yryhx0RABERABERABERABERABESgRIBCs/3SeZw9fhB1DU2YMXsBUk3N4MFflVYpcxJ5oVgwsXnx7Emblj21bS6mts22UeXhBD7FI6dWt1/6CJfOnTKx3N1x1Y2YDzObnlPCOapOtyNeEW68FsXyDXfisS/8BtJ9vTYy/OHh93Fp071YuvZ2JOtTTpxXMirkOUeXyaR8M7lCLoudr//I1o339/WGXIz2Z7E0tf3qpXM24t3RfgnbXn0RR/dtN/tHidKgABqaW/Hcr/0+mlqn2u+BW3LnbISFKzfgya/8N5YW77/9Mj7YudWm/PP+pvufQqIuZUybWqfZ84M8H8MXpgk7GpienKrPzpZ0f69tgDcGb0Z8VCPnI+LRTREQAREQAREQAREQAREQgVuJANec279oFNNnz7e12vOXr7UdxisK7QiQz2ZxeO97eP2FbyCXyWDNlgew+cGnkaAA5gh4oBhDoCJeBLlsP3b//GW88eLfmEDkBm62IVqF5+m0t6dzYKR6tJ3NIxFEY1HUpxrRNnchzp86gnwuj/aL5/DhkX2oSzW6Ndej+MO12A3NU0zMk4sZY9Pmi+CI8/EDu8yf5qnTbar4qB0HAPLImWidNnMe+C+4uFlcNRensXOTO4rflqlt6OvpGuSMMyC4Qz0/Y4kkFq/ejEc/zyUKRRzcsRUdVy9ZZ0oum0VdKopZ85fg01/7XWTT/YP8GcsXsr525QJ2b30JB7a9aZvxcXr7eO5AL3E+lhTRsyIgAiIgAiIgAiIgAiIgArcAgaJp0MaWqVi2/g6svv1+O5e7kjinGM2k++3f23X1ZvucxSuw4Z7HUd/Idc2Vjwjzoh4y/d24dO6sjepWVPA+SYo8jmB/dOoY3nzxW+jt7nDCehTSJpSLwNWL52xzMorY/dvfxKkj+6o+X3zWgqXYeN8TWLhiPTyPa9kHeg7iHMX3PExvm4sN9z6OBcvXIpZIVFz/TXt50X2xMOBHyQROd2fXBGcFRGDPhMPicwyLz3At/av/+FfgTAWKb/5uF90WiyayO3u7wTXnHD1PNbVi2botFi8e3VaXasKS1ZtsE7giimA6r7l99oA/pUhV/0csEcPFs6fw0YcncGTPezXtGTBcqBLnw5HR7yIgAiIgAiIgAiIgAiIgArc0Ae64zdHZ/p5uUFy6I7gGm0wxyRFfCnQTnhSHmbRbv8wR5tCu4GGXHCXnSG0u0z/66KqN5hdNZO94/YfounYF0VgMqaYWxGLxQYI5HEb4b65j5yZxF04fx4XT4TtD/+ZzfT3dtj6bZ5DPX7YGC5evNeEc0ualCQGtM2ZhzR0PYMM9j9o0cYrigStiHRv5fMbC97y4zUwYutleBJxNQOYoFlyHhT9CH4w+mziPFHHq4D7seO2HuHT+QzeS7wfGtLBOjNPHsfvnP0Xn1Uvg2u97nvqCnae+fP0daGhusV3hW6fNtNF1dp7kUUC+LxzngdhX+1csk0B/by9y2bRLj1FWHlTrb/g5ifMwDf0tAiIgAiIgAiIgAiIgAiIgApNOwI00U5BzOjo3NOMu4Lc/9Cm0TG9DIe+mbI9HtDh1Pd3Xg33vvYZTh963EfZoLF7R62Bkm2vS6aavu9Om+HOzOF4Uy+6fh2MHdqG3+xpmL1iGKTNm+0J/YASd4brN4Y7YGvk5i5ahsXWajZQHnR5OnEdsV3U7cs5f718S7xEPhWLRRtbfe+l7uHjuFFZvvhdbHnm21HEyf+la6yQo+Duocx3/9VzsXAjsvx731+NG4vx6qMmNCIiACIiACIiACIiACIjALUGA4pLnnQdCs9yo4Hf79G/aBG3fTdGfrj2cO5vDXX6ziu8z5izEk7/4G1i4fCPy2XxpFLsKpyM+win0XJPNKfDnThwe/tkikMtm/FFwnutNsTowOZ88vFjMNtI7svdd/Ow7f2JHp22873Hc9dhnwfjzGQpc91nAsf078fI//Dl6uzqwevN9uO3+JzF38QrbXC2fy5U25eM6/lwmbSPftlld6ci7ool5rje3c8sjESTrGsx/ZwhnNbh15exwqGpzvQoEGGfazrAn85I4n0zaCksEREAEREAEREAEREAEROCmIcCR6vpUExpbWm0EuVh0I8LhCHLEl1Pak6mUWxPN87+5iVpTq02ldrucDz0v3a05jyJZXx8Sj2GfR/6bwrCvqw/dnR02Wj1eo7gcSaY45tT8Yf2koI5FsfbOh9DcOg3TZs3HjLkLbBM0uqEfXOvd03UN+999HT/77p/i+P4dxmnarLlYu+UBzJi7aGA6v60VL6Dz6kWcPLDbdss/sX8nTnywB5sffAqrNt2LmfOXGCeKYu6sfufjn8WVj87Yuv6pM+ZU3TkRdAicOvw+Th/Zj4wv1kemPfguj6Hj+vr5S1eDnS/ByP3gp8b/m8T5+DOVjyIgAiIgAiIgAiIgAiIgAjczARstB65d+sjOPOeu5BxRHk6sUigf/2C3rU3PZjM4tn873vj+39h55UPXVjvDOUWbQvPw3m3gFO1EcuzSyyaFc7Q6vBC8Zq7cIm1gunkl7xge17rf9/SXAP7zL9oUi8dtx/qj+7Zhz9aX8PZPv2simsfSbXn4Wdz95Ocwe+FyG+HmFHS7fEHPjfc+82u/B66rP7Z/B/a9+wrOnjiIY/t2YPODz2Dx6tvA9e1TZ87FM7/8O0GwJT+q4cDOFO4D8MH2N/HTb/9X9Pf1DPanim9c6//o53/d1uIHYr8KZzU/MvYcUnOQ8kAEREAEREAEREAEREAEREAEbhwBCjhe3A38te/9NeLJ5IiRoSjM9PfZiDP/3vvWKzi85z2b8j0w0bvcCzfi2t/bbWI2Wd94XSPo5b5O5vdgDTin5kejUXCt+eXzZ3Bk73vgmu8je7eBZ7dPn7sQdz7yGRvt5gg4p5OHN9cLRHVj61Tc/dTnMW/paux840fYv+0NXDp7Cu+98n2cPnoA6+9+1P4tXnObrb3n5mv0h9PcAz+qtZ/umGacLt82dxFap7f5syMqdUxEUCjm0X3tqm2ox7X1rtNlAnZ9G8EAifMR4OiWCIiACIiACIiACIiACIjArUjACTROzeb53Tx+y60NryzcKNS6rl21Hdop+lJNzWidPsumeQ875dl2ci/g2uUL6OnumLSp0eOaWhzx9s9m72i/bNPE9297HfveedV2Uufa+5Wb7sEdj3zGRPWUttmlqe/l8aC45ih0si6FRas2Gr/5S9dg55s/wqHd74DT0LkW/uThvbjvmS/bM9NnzTc3lVKl3P/y7wyLewlMmTEL9z3zJay76xEkknXWwVDeoRLMcjj6/jZbO3/t8keuI2VytTkkzstTUd9FQAREQAREQAREQAREQARuaQLBOdwcUX3gM7/kzvi2ncCHrh2nyOP09EO73sEr//gXtuEYzzjf8sin7ciu4UZ1OU0+l+3Hjtd/jFe/91fXNfp7oxKBNnvRmE317+nqMCF+cMdWUJifOfaBHfU2beZcrNnyoO0oP2/pGjS2TrHoksdwFwV6MZ+3jd6mz5qH+oYmUNBzffqBbW/g4pkT+GD7z9F59TKWb7gDWx7+tI2y87mxjpwHcWAHDHeP51T7ZF098oVcuTa3vQS4Bp/nxVPA36hL4vxGkVe4IiACIiACIiACIiACIiACN4iA23acI+A843vlbXebEC0Uho7RUqhyB/Cu9iu2CRrXM8+YswArNtyFusYmFG0X86HuOA08k+7FmaOHbDr1EEU4iuUczY0n4kgkkyOP0I/iT/ntiBdFIlHn/OTocoWLZ5H39XbblPWj+7bj4M63cHz/ThOv3Cxt6drbsfHex7H+nscwa8FSRL0ouDFetQKaz5Ir13bznHWuM5+zcDn2vv0yDu7c6sK6cMamvN/x6HNYvJoj7TOtM8QWs1eI83A/MU6c2s4OFjc1f+h551zmwPt8Lui4Gc6/ifxd4nwi6cpvERABERABERABERABERCBm4qAjd76WppinKIsm06Du6uH10kHkXbiPG2bugVbqeXzOdvtPJpO2OZjlURpPhpFNpNBPs/juIaK98D/4T45ktt+6TxSDc3I5Sgox+5HJb8pRHs6222KfvkoN23l9H6G98HOrThEUX5gF86fPALaPHPeIizfcCfWbnkQS9dvsanp/J3/xnpZOuRz4I75s+YvQcuUGZg2ax6ap87A3rdeQvvlj7DnrZfQ2X4Fmx54yv6xI8COsRtDYLSJYcQTCbBjwU3TH8zS7UFQtOciXuUOizEEed2PSpxfNzo5FAEREAEREAEREAEREAER+DgRoCDkzumFkpgcLNJuJls4xXrrD//OjhWzqfPjJs4jyPT348MjB6xjotxmSlN2Qpw8uAfvvfwCers70Nw6HQtXrrd12zwmbfaiZTYbgCKex6qB/2q4KKAbWqZgDY9gmz0fnPK+562XcebYAZw7eQgLl6+1zpBANgef1QTJTez6e3vQ1XEVmWRfxY4EW3OeSdtu/Pnc0OP0qglnPJ6ROB8PivJDBERABERABERABERABETgJifA3dOBXDYLE2DcoCwYhx2L2ptwK12HQefVS9j2yvdtPfS4B8nd59P94BFxg6+i7YuXiCexcPk6HF+y0p5Zvv5OrLvrYSxYvg51qQak+/uqnsI+2P+Rv3EEm8eoPfwL/wRt85Zg5+s/RLq/18J2m8N51nFQdZdKJIKejnYc2P4GyDMaj9su7OUzHdg5wKn8PFKv69rlkSM5gXclzicQrrwWAREQAREQAREQAREQARG4mQhQkFPaUYT6052T9Tb6y+nMlTQ6hRs3d+NncN/+jnhunTr9Cs7zDpnKEWWOyDKcsVwUjvS/bc5CWw+fTDWM7zroCGwa/6lDe3Dx7CnHwo8/Pyx8z7Mzy3kkWjSewNLVm+y8cE5153FjVYvjsRju75cfSyQwZ+Ey3Hb/E5i3dCW62q9i5rzFtnmchVtt4H56cQf47a/9ADvf+PEosSnasgZO0W9oahnl2Ym5LXE+MVzlqwiIgAiIgAiIgAiIgAiIwE1KoEi9HIkgXlePxpYpiNsO3cWKo8EUylSjsVjc3NBpNOrWMMcSSdsIraI4j0ZRLOTs2bEIdE6597wY1t31KD7za/8Dps9egMJ4rjn3ouhsv4Rv/6f/G+2XL5hN5Wd6B983Pfg0UIzYeu03X/wWXviLf4fzp45WkaqOZbCmnSPi1lFRhctUYxPuefILWLhyA2bOXWJnlHNUm3Ea6B6pwiP/kbpUynaDb5nKc869SkllswUYV57ZfuH08eo9H+cnJc7HGai8EwEREAEREAEREAEREAERuAkJUGNzWjt35M7n7QtHgbkLOT9tpXWFUVmK82w2gzPHD9qIM9esXzh7Egd3vYVEXQOKRfo11F5uMJfLZHDh9AmbMs0dzYe7KDoZN041T6f7bPp1LJmw9dFZTj+3NfIVAhnOwxF+54g+d0tvm7MIS9ZstlHpxpapQ1xwBJ2dAowXRS03alu4Yj2S9akhz4Z/IK98NmtrvDmVnGHRf272NvxZ8s4Huk01tmD2gqU2fZ12uyno12E7j20rFjF99kJ8+ld+F1seeRbJZP2wa865Ad/+bW/ge3/8h7h4jjMKJv+SOJ985gpRBERABERABERABERABETgBhDg6Gh/b7dthMaR2BMf7Ma5k0fsiK2RokNpmMukke7rNcG39YffwbaXX7Dp5yO54z0KbgrsRLJ++OcjQKGYR+eVC+jt6sCUtjm2KRqnlbsjyoY/O3y08MvvU/Am6xvwyOd/DQ8+90vg0WrBLuYMK3w5Ycx1+mksW7cFC1esczMFwg+V/c04d1y5iG2vvog3X/xb9HZdM2H8ud/8527juLIwypybgI/Fk9bhUcT42E07mPbcnT+waVC4hUJpLfp1dAMM8qqWLxLntdCTWxEQAREQAREQAREQAREQgY8FAVv5XSwgm+6zI85sqno8buuL7XgtDhEPc1HQpT2eW94PFAtIJOtQ39gML+K5NduV3EU4Gl6wQXVuamZXpSDsuSIy/X3o6+k2EVmfakTLtDabSs+d08f74gh1si6FSKTBRqg5PF5RtPoB814sHgfXg9PtSBc3XeMRcvSfswc4nZ0dExw959/BVPfh/LBkILcR0mM4t5V/p20U5vQz7x+XN5gp4+XuFyrOgqjs7/j/KnE+/kzlowiIgAiIgAiIgAiIgAiIwM1GIOKBx2p1XbuKvp5OO++au5A//uWvo6G5FYVhjtCiGOUO74d2v4PXnv8rO9Lrjkc+g9sf+hQS9SlfbA4WezSd08ez2bRtRPb6839tz1US2pS6FKKZdNp2JqfbeCKJVFOLnbs9AdrcUsY6Dmzx/dC4V0o6E8sU8aOIcy9fcLaGxHUgjs3WQhWj4SG3leIylt+43j0aiyOeTBpXj0sayq7gbHN2QFS7Nr7Mi3H5KnE+LhjliQiIgAiIgAiIgAiIgAiIwM1MIBDZXC/OHby5dnr2wmVYeds9aGhqRd42XRtqAd1xPXJn+2W4DeAKmD5nPpZvuBN1DU0oFrhZ2VCBy9F4Tmc/c+ygdQQMPyTLEfYi+nq70NXRbhFI1NWjobEVXpRybajfQ2N5vb9ch98VbB0aOv31/Q6e52fwb6iDCfuFx8Vxo7erF84hmaxDvsK0epc3Muhqv1Lx7PcJi1yZxxLnZUD0VQREQAREQAREQAREQARE4NYjwAHf/r4eXDp70sTa9JnzbBfvaDTuj/QON6LrpqeXxCbRmM5065QLRU6FHipyi0XuDF75mLUwXY7a5rM5tF86b3Hjzu7NU6bbLvIU56NNAw/7pb8HE6Dovsb17y+/YPsLRL0YChXWsXNEn9Pa2y99ZOlAX4w7k3XkWfyDA6zxm8R5jQDlXAREQAREQAREQAREQARE4OYmwKnNhXzBRr87r162zd1aZ8yynco5wu3WGw8V2IFVFNlh/c3p6e43J75NhAcP+59u2jgF//D+8lHGLZ/L4MKHx3D+1BHUp5owd/FK1Dc02glslabClwWlr5UI+NPve7s7cHT/Dpw4uKfSU4N+o5jn1dA8BdzYbrIvifPJJq7wREAEREAEREAEREAEREAEJpUA1xFzw7Wzxw+i69oVmy7eOq0NU2fOcZuUcfT7BlwmBjmlvbvLztfm1PlZC5Zh0erbTBxWEv03IJofyyA58s0OkoamFixYvg5t8xbbrvzFAjtLKnSYmDCP2IZ3XPIwd8kq2ywvYuvyJweBxPnkcFYoIiACIiACIiACIiACIiACN4gARTDXHR/a9TauXjyHVEMTps6ci+ap0+0M74mbOh5BkWeYUw6Gh959Dhw157npVy6cxaXzH9omclNmzMacRcttE7NBw/U3gJ11HvijydUGz44Q2hWMQnP43/7H3z3ubn8d1yi7yVfykeF7XgycIXHfp76C2x96xj/nnBvCVRDngzyJwDaJY7ijPjvIYU1fJM5rwifHIiACIiACIiACIiACIiACNzMBnuNdyOVw7sQhnDy4Bz1d17B8/R1YuGI9Uo0tFvVKwnksNpWEaMiRE6hAMZ9z65e9qL82fUAYUgD2dXbi1OF9OHv8kG1SN2fxcrRMnWGdBpxuf+MuTvF2I8ljiQNZOB6hxdr+b/b7GMU+wx5b+ji+U2bMwpI1m9DYOgVTps9CPFFvsxG8aL4quc0wK3fahOwaC5gqnpU4rwKSHhEBERABERABERABERABEfgYEohEbCpz+5UL2Pv2S+i4cgF19SksXXe7TR0PNoOr1bLSaHHJowgiUQ85Ht3Wec12bU8mU2403BenHs/Wzudx6ewpHNy5FZfPn8aiFetxx8OftnPBxyZISwGP2x/cob772hVk0n3DiNTKQXnxmO163nH1ou18XsjnbNbCueOHeL4cd16r7HCYX71YzDbIS9Y3DPPE4J+tQyMCbH7wU9h43xPWUcB0JvZsNjP44bF8CzodAm0++l5/Y/HdnpU4HzMyORABERABERABERABERABEfg4EOBILY/SOnlwL3a++RM7Qm3Ryg1YvGojpkyfacKt1tFpuk/3dpsQdeuZYVOiecTauZNHcOLAThv5bW2bhdYZsxGLxm0EnRvRtV/8CAd3voXjB3baMW1zlqzE4tWbuEvcmATxeKdFNBrD2bOH8Pyf/lsc3vOO7XJfbRicws613jyajufKcwr51h9+B+++9L1qvRj0HEfAv/Tf/R9Yf/ejY9qkLZZIIOHVW/jsBKmms4OzHZguNsLPZQiBEOfZ87E4ivk8cukMCoW8db6wg2U8L4nz8aQpv0RABERABERABERABERABG4KAv5KZxst7e5sN8HV2DoNtz/8aSxbf6eNYlNEVnvxWYo8rgMv5p27qOehs7sDL/3dn+D9d15Bj39OOVUdxWA2m7bfYrEYFixfi7lLVoCikeI73deLk4f24sCON9HTeQ2LVm/EXU98zqa2D3fmerVxHa/nrmfFtYngSMQ6G+JcZ055XCjAjpy7jogNLAIYm2OGmR/jKD13ze/vTVvaeVyG4F8U673oxNF923F033vWETN7/lJMaZuNfD4XPFbzp8R5zQjlgQiIgAiIgAiIgAiIgAiIwM1GwDbyKhRMhC/feBc+9bXftSnaqzbda9OkGd9qRlMDu2KxOOpSDch6USewbUwWSCTqkctk0Xn1CjqvXgwet08KvJZpbdh47+O458kvYPqs+dZJQMHa39eLKxfO2DncqcZmrNx4N5au3TLqsW6DApigLxwZnjZrHj7763+A3u5O1ykx1rD86fsmzum2woZ41XjJzoyZ8xaD/IPOFKZtMOOBca35srgWbabDa89/AxdOH0Pr9JmlKNOG3p4uXDp30jYUnNo2FwtXrseM2fMlzmuGLw9EQAREQAREQAREQAREQARueQJup+0IprbNxuYHnrbpyBTCnLpcrTDnc5zmvXjNJnz5v/8/TYzNWrDUplhz1DSeSOCux5/D0un8+NAAACAASURBVLWbkEn3D2LqRTwk6lJom78IM2bNRzyRtHDzhbwJ/UWrbsM9T3abuw33PGqj5uMiNgfFYuxfaHNdfQPmLV09dscT7SLCpetRYxmPJ41/zUEWi5YnmM49HVdxbP8OJOtSzlt/6D6Xz9r55+vufARr73gQqzbfi3iy/vo6LoaJcOQP/uT14uJFC9DcUI+8Pz1jmGf1swiIgAiIgAiIgAiIgAiIgAh8/AjYcV5BtIulEdHgl2o+KViD3bs5zTl8LBhHdLnevHwKNkdceQXrmMMdAlzfnO7vRVf7ZRP8HKlN1jWURod9pzf0wza6Cy+8viGxYXq5f+TOEfOrF8/i+P6d6O68ZrMRKJQTyXq/w6U8FaqLNG3t7byGY/t34vyHR4c4YlqmmlrtvPSZ8xahsXnKmDp5hnjo/xCNcmlEL06c/BAS58NR0u8iIAIiIAIiIAIiIAIiIAK3DAHb5GuMU9nDxocFuQnx0Hp1t1s75Vsgx8MuKeopLsvXt/PIsWC2d9Gmu4fFe9gH/T2YgK0n5xF1RY6iR+BFY24Tt8GPXdc37i5vG9mVa/wItwqIIBqL2cg9PR+P9AqLc605v64kkyMREAEREAEREAEREAEREIGPE4FahZSN3tru40Otplgs13JDnyr/xY3gu04Dt4Fc+RP6XpkAZyJE4wm/Q8PfqK/yo2P6lWkRSyQRjwyzC7uN4BdKI/lj8ryKhyXOq4CkR0RABERABERABERABERABERgIgjU2mkwEXG62f10HSXjt0t6YO9AB8w4bDIXeDqGz2G6BMbggx4VAREQAREQAREQAREQAREQAREQARGoiYDEeU345FgEREAEREAEREAEREAEREAEREAEaicgcV47Q/kgAiIgAiIgAiIgAiIgAiIgAiIgAjURkDivCZ8ci4AIiIAIiIAIiIAIiIAIiIAIiEDtBCTOa2coH0RABERABERABERABERABERABESgJgIS5zXhk2MREAEREAEREAEREAEREAEREAERqJ2AxHntDOWDCIiACIiACIiACIiACIiACIiACNREQOK8JnxyLAIiIAIiIAIiIAIiIAIiIAIiIAK1E5A4r52hfBABERABERABERABERABERABERCBmghInNeET45FQAREQAREQAREQAREQAREQAREoHYCEue1M5QPIiACIiACIiACIiACIiACIiACIlATAYnzmvDJsQiIgAiIgAiIgAiIgAiIgAiIgAjUTkDivHaG8kEEREAEREAEREAEREAEREAEREAEaiIgcV4TPjkWAREQAREQAREQAREQAREQAREQgdoJSJzXzlA+iIAIiIAIiIAIiIAIiIAIiIAIiEBNBCTOa8InxyIgAiIgAiIgAiIgAiIgAiIgAiJQOwGJ89oZygcREAEREAEREAEREAEREAEREAERqImAxHlN+ORYBERABERABERABERABERABERABGonIHFeO0P5IAIiIAIiIAIiIAIiIAIiIAIiIAI1EYjV5FqORUAEREAEREAEREAEbgkCkQgQQQRFFOH//5awS0aIgAiIwMeFQMyLRBD1PPuHYhHFYhERxt5qaM/+dpW0/Rd8xqpuV4OHKnG6pcOiuWXlbn7YT7zh/HZeM4TB94MwnN8ufPODLs1j333E/9U+LabuPuOOcNz53EADE4Q/YFv4/kTZFjRu/Ay4VWEbY06+ge3jbptjGDAfnG6MXzChwsXb8WdyhtPtJrMtyA9+/qhsWyjP2VvHyHkyyDOlPBuEEaRLkKf9MEvlwu4XrCi4PGlvO6Vy4eJmqVtW3obJk0G4k2CbFeHALmaM67VtxDxrBFyZmGzb/HixPAZlzAqaH49iMZRufhl0DEJ1yRhtC8KZyDzpql6G4Nc1QboFfMvz5LC2FehDqA2onCcDmyJ+XRGEO7gu8fO934qQeeW6xCLH/wy+H9Q3riIcsM3qx/J6tJp0C9vmuSao1EaYBZYnJ9e2aurRAdtK5THIr5beRFelbdbusli7On5i061K2yz5Q3XNGG1z2YNtv8tvo9vm2lZXQZflOfPDv2+Zuez+WPPkiLa5sjpQ3obmyVFt88tGUEcF+WMgXV2N7vJ0qP2rYBufyReBbK6AQrEALwLEPL4f+jxK6WJGDZRH+32gPAZhW3m3usQP15InqEddvNz75jDpNo62kYtfq1kZL8WxrC6xWIXaiIBnwLfkzp4JvxNZ6z/AxLJ+hTwZcP9Y22YUhpa3MtuCPBfUpwG7iWgDSunmx+H60y1sW9l7uEvdUBsRul96n7SELb3rWdPH/wRs7NPPN1XnSb8e/TjZVlaPBmlvpcSKYvi9gniYgsO1AaF6MmBWXpcE5dEPd0ie88vb8HmyPN1GaAPGzTaazLbdz3OBFo9G4XkeYr3pPK52ZZEtJlFE1L2wFIFCIY9CIYNioWANuReNIeK5+2TI+8V8FnyZjXgxRKMxwPNFXbGIQj6HIp8pFuF5UdA96N6HZPfzeXpl9yPmPzOxg1TIZ1HI5+0Fmv570WjpZZpxCvxnIaTfnhczp0RaKBRQLLjwKTTd/SiKTNDAtlLc3f1IJLCt6NuWG8G2vPN/VNtoeww12Wa2V2kbbc/nQXYuXSrZVkAxl0ERw6UbbUtbujG9XbpWSreicWXaRNh4B+mWyxo/FoJwulnRY7rkc6X7pXQLpcuw6TaqbczneRR828jd5blwnnTpxsJA29z9Sra5POnuDxTSQtg2y3MuT5rpfp5kuaDtdOvKS8TPc872YjFvnR+8z3JhedJsy7k8beXJT7dQeXG25SzdBvLUYNtYJpgQ1ZS3obYxXXKuvPlxY9myaxTbXHl0eW5IeStPN788husSprmVZ74QlsrLBNjG1wna5tclHvLwwHqigHyhiFzeQyTm0sUa96CeK2TtmeuzjeUxY+VxONtYJlg9u3SLw96KCb4wUI/y60CerZAnQ7ZZurkCZ1yDPGm2Wx0ezpPl6RYL5clQXVIh3ZhfivmBusLyPEUfo2dtANuIkG2xuL20uDxVZhsbJLYRQZ6j+6C8DWNbnvWctU9+unp0P1DHB+3TQLr5tpXagKCO9+B5cUTYflnc2YaMYBvTxdq/YWwL2r983kyNjNE21t1B+2b1qJXHwbaxjreGvdS+DbVt8H1X17CeHtG20dLtemxjnvPbiJFsY9ysLvHLG0W21ZNRv/0LpRtt4/0gT7MetTxn6eLyJF9wvCjzXJCuzHMj5Mly20ptRBXlzd6zKqUb3ytc+2h1eNA2V2Vb3F7SKtsWlJcqbRutLikUUSxkkcnlkclTnBdtwKYukUA8Fivld9dGOK6D6/ChdQXTjtXQwDtXzvIs3dm7gedZXVNKt1w6VA+Wv0+G0y0GLxaqK3zbrJ5jeOXlLdR+sYC7POWni59u7r0kx7vmN+MX1AVss+2dKvQuPKxtlq6uLgnSzaV7kCeD947B7Zu999j75PXbZnLHb9+CepTlabBtjFvwrssiMwbbLN0oHFxdw3QbzjZXHFlPsh4N6YAKbcBo6cYwaE/wPhm2zdWTQbqV2WYaJmgjRqlLSnkyrBOC9xLXNrv3eH/AMqgnaV+gA2ibNUDM5sUQd7ZPQXn16xK+c/gaKfyuHNiG0n1nW/i9xOrJMaeb/77pYui/F7A8DrwLW/tn1ahfTwa2WdzHZhvTpfTe4eu3iraF6nC7b21AhbqklOfIlvdDdQnzfCTq6hq+Nvnvk7XZlrfiPzTdyCascYZLV75Ls31iHR4qbxb3wfrMi7A8sY0oAIUsurrT6EvnEOu6dh5nc1fR0joV8bpGe0Hhi2KmtxvpnmvI5zKIxeuQbGhBvC5lARJ6pr8bme4Oux9PplDXNAWxRJ0VIr5UpXu7kOnttMY2XteAZGMrYomkey/LZdHf3YFsX5d9j9c3IplqRjTO+0Xkslmke9otDjQs0dCMRKoJUTa0xSJymX6kezqQTfea4YmGFnPPzMWCkkv32n0+58XiSKZakEg1WtzZWGR7u9BP27IZi3O5bdk+2h7Y1oC6plZEE0lney7r2JhtOTjbaHu5bd1mC21LpJoRC2wjm+6Rbevv6TAb+HKRaGgdZBttzvB+ph/RWByJctv6utDfPYptvJ/PIpZMob5xCqLJsdo2kG5Mm1jMTzfa1tWOTF+3CSDanahvsnhaujDdejuQ7e+1hj/RSNuawI4R3s/291ieGUg3l+7M5MyTTBfmm3w2jViyztI1yJMssAw3yLPxZAPqzLY6E5zMk8zTzJMsvPFkYyldmQnzlucYty7raIjXN1ncgjyZZ57take2v9sat4A782TJNsuTPYh6MTBPJhqaXKXBPNnfg3RPJ3JZP0/yfqi8uTzZiUI2Y3kt2dgCliuzfZBtWctzdQ1+nvQ8EzED5S1v5Thc3kq2lcpbE5INLG8JK0/ltrEssrzxxdZsy/YjzfKa7rGGuY51Qdi2UnnrgxdLWF2RqA/KW9HKW1Ceogm/Lim3zc+TTLdkk6sraLurS5huHVYpl5c3lmGrC/q7/XRjXdKCaMK3Lcu6JpxuzZauiCaRLSSQzkWRz/ShkO5ELHsZdY2tiNN2dpz4eTLd24k865JoAnWNzWCZDvKk5Sm/njTbUgP1ZJAnWR5ZoVeyzerZQXXJVMQYd8uTGWR6OpEJ0q2u0dgOtu2qlRu+cLG8JeubrM6jCMpn0mBdwnLFl0nmCabLgG1+XRLkSatLWB7d6NaAbVk425oHtwEsb93t1lCabVbHu/LG+iUob+TAdGMbYXnOt83SrY/1JIypy5PJinnSbCvlycC2a1aX0DZLN9rutwHhusTqSZa3et+2YtGYsh5l3h+wrcHVFUF5G2KbqyfphmkSbt/MNv/Fs5QnS7YNV956/LqkaVC65TJpq8dYTw6k22Dbgjw5dtsKFve05Um2XykkG8rKm9nWVSpvQ23rHNx2N7SU1SXMk732LjG4DSjAbOu+5uoS5smGKdY2D+TJHgyxjW0EZzj46cZ8w3qBbS7rYeYt5ll7L+nrsrqKL28J37ZS250Pv5e4enKwbeRO21yeZH5h+xbk2RzrmlIbELN2me8VVk/yvSXNejJkW+OUUHkrGBO2f6xLorGEte32XhLY1ttl7aPZFq+zNsS1b4FtLG+sS9x7B+vhkm1se0t50i9vjVMRjbsOsXwm49re4WzLZNDfdQXpQhzZ5CzkvTrEI3k0JTpQH8siy7a7y9nGNi+oS1jvsK5heodtY56K853LbCu4ttvSje1bfajtdrZZ+0fbgrqikXlqoO0ebFuja9sr2RYB4nWh8gb4eY5tQFDe+L7Y6OrJwuA8yfLEuFv7FbaNdQXTLe7aN7YRZluhYO/CLk/yfbLe6mi+W1meLOaR7eH7Zof/3sF34RZ7p7b7Vk8y3fmuXClPsn0LlzfaRjYUS75tli7d7l04aLtjcXv3dm0Abe+19zArb/UNVu9QuPN9knHnc16c7VuLa9+YbrSNdXxvUN7cO1fMdEAEhWIemZ5uZHrakWfc2XY3tNg7NW1zbUAnMr1BXcJ3rikWD4pYvsfxvcV0ANON71y0zURuuW0xa9+svNE2e8/vt7Y9l+6x8jRcutm7cjw52LZiweJF7q4u8cubn27stLB3Kr6XFAqunkyFbLP3SdcGMM8yvySpgXyBnsumrX0I6hLaRrbUI6V0s/cS5slQXWK2FZBPp9HX3W46IBpNWJ7he4erJ/3yFugAS7dW4+c6RYbaZukS2FYoWH7L9LC8FUwHsC4J9JtLty579zDbUo1INg5nW8Tyy5hs43tJUJf474sj2mZ1Ccsb9WuFPMm4D7GN5Y15ku3byLbVNfC9xHU+uDw50AYMTTe/jg+1b9Qwlq6+NjWdkGZ5S4AaJ1HXMDTdsq4NKNWjEc+0dH/nZXR1dqE/DcTmRndjeXwPpsTrEI/SEzaCQDbWg0yiC3mP4jyJeKwJMa/OXn4KkQKysV5kE53IR3NOvEebEfX48hJBPppHNt6NbLLbYMbi9UhEmxHz3EtnwcshHe9CttDrBGw8hUS0EcyEDDvPxiDeiUyyx4RbItaIuMe4cYl8EblYGtlEN3LFPvcCEG9C3GPG9cV5tB+ZeBfykbQ1nHQf81L+fd823q9kG8ptq0cy2jRgm5czNtlEj/U6jmwbEC/ZxgoFyEfLbWtAPMoGPuZeSmNpZOIh22LNvu2BbX3IJLpLtsXjZBOyLVop3eotXYN0yyQ7TSxYQxILp1sO2TjTtXtU21hQYmW2FbwsMky3gt8IMt2Yp2hboYh8NINMrAvZZJ+lBfOEpStFGDN2rM/yTZBu8VK6l+fJrOVJl671NnJP23KxXqQTnWA8KtvWg1K6sRG1POsLoWjO8kyu0GN9i0w3posT3zA/0/FOy7PsBLI8GdhWLCLPdEt0I4s+E+SJGPNkA7ySbf3IsjxFMtYzz/IUjzLdhrEtyjw7YFs27tK1EKXtqYE86UXA8pSJ9Qwqb2ZbJGEduSyjLA/ONqZbAxJeI6Key5P0Mx3vQK7gylPAnbMm2AjmC2mkE13IFfvdC4CVN74Qe66zLNpneTaPtFVSgfshtkWz1gHHsh4P2xbrRYbpVsi5dPPTxV5eWN5oe6ku8W0v2cY81z3YNqbbINs6kSs4sWDlJdqAfkzBgb47cLj7HiCXw2wcwz2pv0Ii3mx5NrAtG+tHlnWFbxvT1dUlg9ONDKOxpOUL1pPMI6XyFtgWH8hzJdvM9oHyloy2wIvErRPZ1RXdyFqeBGIJ1pOsi8rSjfVgxIPZFmuw2S6WbrGM1bOsJ9moW56MDqSb2WZ1fLieHNoGlNvGGVJFawOYJ5luecQT9UhYXZKw8piHS7dSeTPbWxCNUCy4epDpRtv4kluqSwLbPD9PhmxLsDwFeTKWsboma7bFnG0eXzo5IlVENqhLKuXJAu8zz3VZuWYHXFCXcIS3km3W/kX99q0YtAFMt4JfHpvd6HuZbXwRi7O8VcqTxV5r36y8RFOldLP2je1j2DamG21jh1GZbVYXme18oeZ9pkt3yTbnf73Va5wxFbTt1kkZr3dt+yDbQm1AguVtNNuYJ1lXAKW6JEg3vw2wuoSzU6Jsu7tcPck8GZQ32sb7scF1iatHfaFj98dmm+XJaMIXSqwH2QYE6VaPpNcyJN1YV/Aqz5MsjxnWk2Yb486228+TbN+YJxOdA7ax7Q7SjSIwxveSgbY7aCM4aFII2+bXJdZGeG7AYyBPdll543tHMsYBC2fbQHkbeOeyuoQzQkp5km1AYNvQPNmfaMe5zCrsy34e7cWFmB69gPnxt7A4uheFKOuSTuTYvrHz2Wzz3zso8sy2LhTYvkXjA+VxkG0sbzlrA4bYZnU86xKWJ9aTbHv98laqSwLbKufJoO0OpxuH0/jewffNHMsb2257Z3Lvk+z0t/sJ37ZozM+TgW2uvAXvXNYZ5rftlm4RV96Yp/jeYXWJ33YTvHVcBG13Ie8Gg1iHB7aF6xKzvcw2e6cqb99ceSvZ5sedtrGsWz1pM0lpW9qlG+sSpouVN9+2iF/e+C4dSZsoHpQnzTbWBV0oRHMmNqwepA5gZxg7Zayu6TShHmf7FHPpRtsLTDe/LuJIsL0Le6G6pMB3YbYBTgfEYnwv8W1jxwPfFwPbIlGrR1meXF3j3rn4vmftGztVYs2I2TuVZ/Wg1SV8b4lkhtpmedbVc9a+UeP46Vayzd6lXZ6Mx6hhGLeEzQIqMN0sXV3bzbogUWZbJtaNXLLXRnRpe9JjB6vb5stsY3ny6xL3XpIaahvLWzTht90u3VhGWJcwXVy6JSxufN90dUmgYbqtPjb9FrxPWrrwfre1fxS7pmGGpBvvO43j6jnqBL8u4QybUro5jTOsbZ6fbl4o3SxPdlldwnYhbhonBS/qWfkfZJvZTp3ANgD2TsX3fGvfgneuqNOmVt7YvsVDtiXYvjUiFuUAIvPsQJ5kB4ylWyycJ/leEeTJiOXZwbZRn7Eu8d+VWZdY2+4Gc0rlDf2mHaye8/NkxXQr1SXUzVn0x6+iI5HH0dwdiK2dfgqfXfgKmlJZwM3Cs4bJjen7cyA43FxwP5f+S3Xmz8yx3GfTKEt37QVs0P1y93RLP3hV8j98n275TPgK7gfhhu/T3+Af3ZS7D+7xs1LY/P1Wti2wfzh2YdvHmm5hduXcmRa1pNtY3FdjW/BMkK+CuPH7aPliNNvoR5hdwJyfwT2GEVzh+0G8xno/nG6BH4H/HyfbwtwY/3CeCuwKsxnJtoB3wMb3uyM7DQXUY1/6USSTESxr6sdX5r3maIXDD6cL7/JeOOzw/UpxK78f9ns8bAv8rxQ3/hawqSZuwTN0xyvwm5/BPX4GV/l92RaQGeDOX8gszCbMjffL8xR/U7pVl+eCfBmQD7Mt585neD+oCwK3/AyugDu/l7sP+837N3O6BfltLLbFgL0dGXz40adwoa8OzbFObG7eivtav+9sDdhU4hZmM9z90biTKf0p5x78Hri/HtuC+FVKt+BeEHYQfz7Lq5r7QdwCt/wMruBe4H8Q/+A+fw+eGSlP8flyNuG48X65+/D9SnErvz9S3Cq5D+JNf8rjxvjw9+CZ8rjxPu/xGV7l7sNx4/1y9+H7leJWfn+sto3FfXncGN+RbCu/X+6+POzAProLrsD/4B4/g4vuA+7D3Q/C4P3R2JTfD8JmeJXch++PZBvdl9/nb4H74eJ+q9o2D+jsieP5k22IZfJxpLMJNOWyQxMoSOiJ+Ax3BFTyv9b7lfycrN9qjfto7ifLjkrh1Bq3G+2+kk3Bbzdz3II4Xu+nbBsgFwGy+YTts8GWxUaZySc78MhN85fSbfikqJXN8D7XfqfWuNXqvnYLhveh1rjV6n74mNV+p9a41eq+dguG92G0uBWBTC6OQpHrajnHIop8IeoGbfgCPZr74UMe/U6tftfqfvQYXv8TtcatVvfXH/PRXdYat1rdjx7DG/fEaLaNdn+0mNfqfjT/R7o/Wtij3R/Jb96r1f1o/o90f7SwR7s/kt9V2EY9Tl0e9D+M5p3ui4AIiIAIiIAIiIAIiIAIiIAIiIAITBABifMJAitvRUAEREAEREAEREAEREAEREAERKBaAhLn1ZLScyIgAiIgAiIgAiIgAiIgAiIgAiIwQQQkzicIrLwVAREQAREQAREQAREQAREQAREQgWoJSJxXS0rPiYAIiIAIiIAIiIAIiIAIiIAIiMAEEZA4nyCw8lYEREAEREAEREAEREAEREAEREAEqiUgcV4tKT0nAiIgAiIgAiIgAiIgAiIgAiIgAhNEQOJ8gsDKWxEQAREQAREQAREQAREQAREQARGoloDEebWk9JwIiIAIiIAIiIAIiIAIiIAIiIAITBABifMJAitvRUAEREAEREAEREAEREAEREAERKBaAhLn1ZLScyIgAiIgAiIgAiIgAiIgAiIgAiIwQQQkzicIrLwVAREQAREQAREQAREQAREQAREQgWoJSJxXS0rPiYAIiIAIiIAIiIAIiIAIiIAIiMAEEZA4nyCw8lYEREAEREAEREAEREAEREAEREAEqiUgcV4tKT0nAiIgAiIgAiIgAiIgAiIgAiIgAhNEIDZB/spbERABERABERABERABERABERCBTzqBCIBgSDj/SYcxsv0S5yPz0V0REAEREAEREAEREAEREAERcAQCocnPgv9votgEYdH/Yg1h0R/+ox/8N5lXxGHKZFwUklSfExkHdgLcCDvHianE+TiBlDciIAIiIAIiIAIiIAIiIAK3NoFcAUhngUIRSHjuX4TCdwKufAHozzqtGQ/CGms4Eec+mwMS0bE6ru15amSyutgOHDkNxKPAvRuBWNBRUJv3Q117QDYPRCOAN1FhDA11XH+ROB9XnPJMBERABERABERABERABETgViRAQX7xCvDOAaCnH1i3GFi1AKirAyLjPRocBy5dBN47APRlgJXzgeXzgIa6sZGlKL/SCRw/C6yYD0xtBrxgdHlsXo3t6QjAsD+8APxsG/Cjd4BpLcC8mcCC2eMv0Im/uxc4/CEwpRGYPR2oT/pRLk+bYIr92Cwa+WnOohiHayKiNg7RkhciIAIiIAIiIAIiIAIiIAIicJMQiAAcNf/gQ+D/+jPgd/898L2fA529QJGjtPw3nlcdcPAM8C//GvjnfwR8/y2gvTu0dnu0sCJAvgicvwJ87w3gX/0N8P2twLVuN818zPENbKz2MwpkisBJX5y/shN4fTfw/JtAZ1+IWbX+Bc8NY3cuD2w7APyH7wJ/+kNg71GgNx0Kx3dHnZ4turgxfrX+o1+5oh/OMHEby88aOR8LLT0rAiIgAiIgAiIgAiIgAiLwiSVQpKDLuenTFIQTuX66WADyeTcCzU+GXfUVATJ5N5L8Zz8Cdh0B9p8CZk4DHtgENI5xtJ8dEEVvbObWNwAbVgNP3wXsPQ6cvgg8vxV4eDOQWg7Ex7j+nLMTIoWhsxQYr75e5/dPtgEdPS6s33oW2LwaSNHWAkCe/RngxHk3G4EzIa73Yl8BOzg4hZ6zGeZMBxpTtecHifPrTRG5EwEREAEREAEREAEREAER+EQRoCiLem6g3KaHm0qbIAT+aDHDGXNYRaAuDmxYBvza08CBU8Dxc8Cf/whomwKsXwpUuzlboQD09Lqp/FwHX9VF4cs52hEXh/vWAd98GTh9AXhnP5CqBxo57XwMAjkZBxrrgbrE4BhQtDc1AF//FHDyPPDabuBbLwNXu4B/+jngwY0uPI5wk8Gv/2tg3zHXyTLYp+q/cZ8B5gOGe9dq4H//GnDXRsDLjc2m8hAlzsuJ6LsIiIAIiIAIiIAIiIAIiIAI3OwEKN6HU3MRgAJyehvwzN3Az/cC33kNeGMP8OgmYOFsYMbU0C7ulWyl0IwAXT3An/0Q+M6rwJnLbjSfgr2qi7u1F4CuXvd56gLwL/4LUJesbtM22sARdgrhzSuA//Y54LEtfmdFEAeOqEeANUuAu5ut/QAAIABJREFUf/lbbgr/j94FXtru1qFzKv9z9wNxhukBqSTQUA8kaN/1XFwyUAAyWaC3H+juA2wWxfX4VeZmuOQse0xfRUAEREAEREAEREAEREAEROAWIUBh64/sVmURdwCnFo45IUg33BGcwjFCRcUR4GpGgfkMRWU1z44QMTrP54CenhEeskg6Ifzpe4Cf7QDuWw8snePcdnSM7DaVAGIJtzN9exdw9jJw/rITyuRQ7RUIbI58W7w5Et9XnWsKe+7Azin9c6a50ftBLpmO/i70sSiwchHwP34VSMSBF7YCZy4BR8+48KangEWzgP/0e05Uj2mZQDjQOHDuCvDCq24qPeNIG8fjGgPW8QhOfoiACIiACIiACIiACIiACIjAjSVAQcWRT67lrkooc/fxvBN5dEuRyWPCOnv8EVn+wH+jXBy5tZFgf2S79Hh5Z0EUiEbd9Hm75bnvNlJedJuaHTgK/K9/XHkteuCGopFrq692us3rth0ELl5167BtqnwpAkP/+F9+GbhzExBhPHzxuXQu8Av3A/euAzyK4mD0OuScz/Ifxa8JYH73B+n5mP3O776fwW8hL5yDBHDmLPCHfwNwxJ14Q07s8UIe6Ot37NlhQFG+djHw288B86a7qetc497UCETyrqOCAr6mKwFMuwDs2OeP/tfk2WDHEueDeeibCIiACIiACIiACIiACIjArUrAF412xNcOYNsHbkqybQ42irjmMxfagY/anbD/8TtuczFO0R7tKDWOskc8YN4M4Kk7gQ3L3aZsFLcMliIz559pbuhjQDrjhDXv81iy/jTQTyEKIBMBOJrNHdDZWVDpCsRsYBbF8KVrwOX2qvoR8PVPA+y7oCIOxDWPKeP08qfv9qfUl4fNZxmgH7jtZB9EoCySJaHtn8U+qHODN+uAY4eB//yPzqGJ+cARp5bDrWH/f7/tNnp7dDPwxBZg2hRg4zJgWjOQywHzZw6sr6dzO2c98KcsTlV95XrzoKOgFn8qBCZxXgGKfhIBERABERABERABERABEbg1CXDklmd/v/U+8Pevu/XDNsJbhbkUwsE0a+5+fuhMFY5C4nb1QmD5fGDlEqCRwi7q1izvPQy8usutzTYfE8CHZ4Fzl4GeNMCjyCisuQFZIgbMnQXcuQz4375WNmLvny++/zjw8/eBSx1AWyvwhQeBOW1ux/KwrYG2rKSf1ywEuPdaHzsQiq6jgAKZ678ZB5vOHxbnFMx54NBp4MJVYG4bsHReadb5ACjPrWM/dd6NbHOn87apFdagxwBOVQ9G2C3eQUQ5IyACXO4E/vYVt/t6cwNw9xpgaqs745yj/HycO6qXehcGYlH9X/QkCJeu/BkBtez2PlzgEufDkdHvIiACIiACIiACIiACIiACtyQBiux+buiVBmZPBR7eBLQ2+SIsLMQC633Ry93G39rv1j7ftgzYsNRNlTaRW8mdB2Q94L3dwP6TTkRy8zATmr5o7MkCe466ndQpau3yhS6PbeOz734A7DzshCqPBqMIfeI24J99JTS1nJ0AEeCjy8A3fwK8cwCY3gx85l7g974MtM0IPUu9GihzP0iLfsiG+rjbb47iPBDl/GR8innfPcW5bwePKeP54t99zQn0O1YDX3kMWDYnFK7v/oPjrmPko6vA2kXAI5uAtUvcZm2laBXcrADOOmCHAKfhl8eZG7P1pV06cplCSTAXB6acW3wZZ9/OsX4wPtxvYDIuifPJoKwwREAEREAEREAEREAEREAEbhoCFHkmuiLA4tnAH3wZWDgvJCLLlVzEbSL2+k7g4Gk3Ff6Zu4Bf/RTQ0uJP5Q6PIgeWRoHeGPBv/gg4csYXmb6YtUcKQDLqNip7bDPAncXt8oCzF4H9J9zo8pLZLp71dW6K9sr5QFMKaA6frR11668PngLe+cAJVh7z9bWn3Ag2146XFGrE2XD2khO3s6cDHHk2YRzYTnuKbpR8/RIn8qc0AQvaQiLZV64U2TsPAf/wOvCz7Y5VS4Nb644wVz7vz1zYfQTgGvg39wAfnHS7yt+2HFgyxz8DveDi9OSdwJpFwIr5wNzpg+PIdOToOi8T7+5P99+imxXBTeHY+dHT73eKhJ8Z4e+gI4Br2FcsAuqonCul8Qh+jPWWxPlYiel5ERABERABERABEfiYEsgjir58E7rzrUh4fWiNXobnVpVWtIjP9+Rb0JWfgqZoOxqj1+BN9NtpxZjoRxGYOALcoG1qs1urbNk7EKfhICNAsscf2eXO7Z7bPZyiNtXoi7ZK7qJAXdS5c8o37Cm3XAdakm7k/o41/sivL3hffBP4N98COrqBZ+8BvvoEwPACwdxcz8Xovn/+kWUnTwMvvAm8tc+J6GfvBTav9MV08CydeMDFS8D333Dr5nkW+IO3AVxTXhLwvtdcU//UXcCDm1znQgPX2PtDyZzif+Ic8NN3gb9/Ddh91Anru9YAj28B2KkwqMrgsWeeE9qP3+7E874TwD+86dzSzXP3AqsXAdNagZlTgH/xy64jIR4FGuoGi/MymoO/RlzHxq4jwP/zl26H9eHW5w926L5xxJ5p9vtfAmbNdzMkBtlSyVGNv0mc1whQzkVABERABERABETg40Kgt9CMA313Ym/PA5gZ/xD3NX8fU6IXK0a/gCg6cjOwu+dBHOi9E+sa3sYdTT9DKtKFSPnbe0Uf9KMIfDwIcNozN1wzoeuPFg+JOUfOe4GL7W6jNt63ddcU5JkyARp2zPXaBSdChys2FPqpFJDitHpfmOcyA2uwOaWbo9ozpwEz20IdAYxz0CHAddxdwBu7gR2HXWfAw7cBFOc803uQqORU+xyw/RDw/becKObRYAtmAVOW+5EP/PVHpBsbgMZmP7yC22iNo/wnzwF/8iLwwltu1J+j5RTyX3vSTb2nmC7FkV7T3wKwaDbw258F7lwN/N1r7kzy4+edX+8eAH75ceCRzcCC2cDUqaEp9NwFbgyj1wyOZ5F/dAW40gHMmhqaIRBOp9Df9J6b73GJAZc98Iz2fIhH6NFx/1PifNyRykMREAEREAEREAERuDkJdOSnYUf3o3it84uYHj2PmJfBQ1P/wX9jDt4+i7aus7fQZKL8B+2/gbPppbiWn47l9btQF+9BdITR9pvTcsVKBGog4I+gdve5c7O5xpmCuiHlb4pWg9fmlEWPotO2RqfqB65cBg5/6DaL422uU89z5LtSR4DnxDKniXME+uRHbqT9688CC2eVFW9/Z3SOdr/4FrDjEDC9Bdi41E0Zt8XVFP3hK4gf14AzChngzEXgR+8C33wZ2HXY8Vg+F/jqY8BnHwKWzQMSnG5eqbOj6DZpa2kG7t8MLJkH3LEK+NuXga37AIrzw2eAH7wD/M9fBdYuBSj62UkxSOiH4zjC3zySjsestTa65Qufusc/li6o8sJuPdgRefuPAn/4t8Bu3zZmgcm4JM4ng7LCEAEREAEREAEREIEbTcDeLvk2GkGmUI+LxXnY3vUY1qXetpgF09W9SAGRQgFX0zOxq+chnEqvQhERcCQ9iT5Na7/R6ajwbwwB7gzeAew97s4Lp6CdMw3wklTO4xglltO4O9ebU9N5Pjmn3Fvx5X/sj1B4/B4FTpwG/v3fu+nsd64CvvKIE9wmtimQ/WnofLan2wlhWxuedqPXz90PtE0bZlTaD5O7o3OK/Zu7gD/9IbD1fRc/dlQ8dzfwO58DtqwGmpv8NfhBZ0MouqU/rccBiHludPwrTwBc106B/uc/Ai5fA158Gzh2FvjKo8AvPwEsnnv9Ap3hcvkCj1VbtgSIxoe3lZvw9fcBnL4/hHfJgIn5Q+J8YrjKVxEQAREQAREQARG4uQgUgZboVaxLvYXj/etwPL0WR/o3YU/3A2iOXbF3UE5X5xr0nkIzDvbdgb2998GL5DEjfha3N7yCVExT2m+uRFVsJotANgucvwIcPetCbOJUcV4UvuN5UQhngSNngVMX3fndfuF0ofA+/wWjvnGgvR3465+4UfBlc4FfegK4fxMQ4TlojJ8vru1w7jzw4lbg+a1uFgDPBv9F7qg+NzTCHvafoXruXPe39rpjy3is26kLLjorFgC//jTwmfuBxVyXzSPWKMqD+I3Gxh9Zr0sA61e6qfs8R/0vfwz8bIcbQf/P33Mbx/3ms8Cjt7tp6YMYjBaGf5/LF7ijO3hWfHhJQNg9d8mnOPfPmA/fmoy/Jc4ng7LCEAERuKkIuLWS4VYj/PdNFVVFRgREQATGlUCD14nl9XuwPrUV57OL0ZdvxPu992Jq7AL6Co2IeVn7PNa/HulCPTpz01Dv9WB53W5bb14X6RvX+MgzEfhYEIgA7V0Az+XmyDGP7/qoHfhX3wT+JwB3rQVSgRCu5ZWCU865tr0TOHHWrXumd1zbzjPO/+E1YEoz8PRdwIyp7pgxbur2Fz9w67avdgFrFjt3P30HOHfVnZPO48W47v3CNSCdBg5+CBw/B9yzFvjVp4C71wFxxp+BBUKeCRMBenrdeek/3Q68vc/tOM+15pwibpvUPQZsWgG0tgJx7oDvi+0xpSs3icsDCQ+YPQN45n5gyVxg4zLgj190Z9K/uhu40A7sPQZ87gFg3bKyuI4lQNoYtjPs1j+Ozm7XkpZhP8fwt8T5GGDpUREQgVuDQLqYQn+xobShUX+hAVdys+zlVJsc3RppLCtEQAQqE+Ao+JT4BWxqfA3H0+uxr/cenMqswoXsQnCNeSKStp3cD/VtQbaYQCRSwMzEKWxp/BmmxC/C4+HGukTgk0TAP5ebx5O9vhto73bHcfX0AW/udZvD/e4XgYdvB1p4rNn1iNOAJ0dto8Dxs8Abe4Euvy+MG5LxzPK397uN0bje+6uPO4H8jZ+4UeYT5wHunM6j17hpHUeJO3sG1qwziDTPAS+4OHM3dE4Xf2gz0OJPQ+eGaVw/vniWWwfOo8SoT3nc2Y/ecbu6c8bAE7cDT9/tdm9fvhDgeegeHwzE7HDCN7BzuM9gLXoK2LgaaJviNnDjKD/jxXPiKdhNWDOMILzh/KvwO9efgwqY/yq594/Y4/FswY70FbyZsJ8kzicMrTwWARG46QhEgHQhhQ/Tq3A2swzRSN7q5cvZudjR/Rgea/k2opHxXDh20xFQhERABD7pBIpAEv1YkDyM2xrewJnMMhPjvZFmFIsRm9KeKSZxNTcTBXhojrZjZf0OrEm9h1gxfA7TJx2k7P/EEIgAl9qdQN111O2CzqngS2e7NdHvHQT+43fdWeGPbQFmtPhkKgm/KqDlssCuY8CHF9wGbdxFnTqUR4pxx3aK72++5EQ3jxyrT7iw57W5NfAzp7rzz5MxIBl3/yjy2ZFAcUvRzrPCOfr82B0An+eRYV09wLYP3Ej1tGbgt58DNiwDkklg03Jg33EXh9tXATx3fMNKYGpraNO3Kmyr9hHaWxcHFi4Avvq020X+lR1u1sJDG138Tf+PgTE7Grih39+96jiUhHe5Hzz/nbMMLrmp++Q1mZfE+WTSVlgiIAI3lABfNC9k59vuw2czS/2zfSNoz7dhe/djWFW/DXMSxxGTQL+h6aTARUAEJpYAt3ZrjHZgY8ObONq/Ebt7HkCuGPd3YOebaATZYgzxSBbzk0ewufE1tMYuITLZb6kTi0G+i8DoBDy39vid/cDLO9yGcMvnAb/ypBvZnTsD+Ct/rTc9S2eAJ+/wzyLnD2MRdhw1h9ulnRutpZJuivobe9xo99rFwH3r3Lry774B/P3rQD4PPHefE9KpOidauVEdj07jGu5kHdDXD7yxy01NZ5QovD97nztijceZcYSYx6odOuWEK0X8/Dago8dNAuCO6zbtPQZwtsCyBUCqHnj7feDs5dBMAVPLoyOt6glXDYHnq9++Arh3gzsvnVPy2QnBKfVjYusHymPRuF6eG+2NFF0Gz03h2GEx2dWexHlVOUQPiYAIfOwJcA1XvhmH+m7H4b5N6M43247D3IE4W0ziVGY1tvU8gSdj30JjtL005f1jb7cMEAEREIEKBKLIYk7yGDalXsXp9DJcyc22d12+sLJe5M7tU2IXsap+u60397hgVZcIfJIIcBO0nBtN/vvX3Mh5SyPwyCbgPo7ezgaan3ZHcn3jp8DOI24tOo8Z45TvuW3ueLGqkXF2Xw54/yjw873uKLItK9waa653b065kez5s128OO2d09iXzgUWLQDiUbcZG0fMeWwY1SfXqfMoMHYsnL7oRO1n7nUbxq1a5EanOc392BngH98AfrrNdQTcv96t+aY/rBMo6O/f6MQ6R+N3HgK+8UNg15HqrOOo9aCLa+AH/TD0C50kE8A//RxgO7kvc+vmo5Excg28Lrq1+6sWAAtn+lPWh4kEzzS/2uHOf+dU/8m8JM4nk7bCEgERuGEE8sUYzmaWYF/v3fgou6DUYxpsDteVb8XO7kexum47ltXvQSLCrTx1iYAIiMCtSYB1XzLSb9PVj6Rvw/auJ9BXSCESKaJQjKLO68Gi5H7bOK7Ru3ZrQpBVIlCJAFWh56aK7zrk7xq+3T348Ebg8w8Bs3mEWs4J8F960o2ufuslYM9RNwpN0fzsfcC8mW7KeKVgBv0WccKXQvD1PW5EmuvBF81y09K5oRvPOefxXysWumPSuGZ82Ry3QVy83j+6zBebfPb0R8BL77nd1bcfBBrrAU67/63PuA3c6utcDDhl/yfvARyN7+wFHrzNifd5s+yENhcxAByZ58sT++mSUbcWnLMIRrz8DocLl916dY7Qcxr9qsVu87gR3TIZIm4qP0+B4wi/HQdHG/mvXPCP4hmdkMEXHwaeuBuIUgUHfoXd+p0yh44C//pb7qi48O2J/lvifKIJy38REIEbTyACdOamYH/v3TjZv8bWnXO9+cDFl9EYzmWWYEfPY5geP4fp8bM6y3cAkP4SARG4BQlEigXMTJ7GptTrON2/Aqczy5FHDDznfHrsvAn3xXX7b0HLZZIIDEOAgi8CcNfzvYfceds/fs9NH3/8duBrTwK3r3Rnc9sc9ILbXdwEOtwZ3ftOAN/4mRPsn30QmDurCiHJzoAMcPC42wiO69Yf3QJk0oPjyf0YU3Fg7RJg2Xw39d1GpTN+GL4Y5oZyL7wJfPsV4Og5YPZU4PEtwG9+Bli3xI2yU5i29wDcBf35nwNnLgOblwNf/zRwG20ki/Crkv83f+Zo/T/70sCGdYNjGfoWA652Ay9vBf70B078M4zf/zrQQhUa9j/kzP6MuDPNZ08B7Ni6kZ4tdzvMd55zzlHzNUv9c86HE+dZIM9zzv0OiWG8m5CfJc4nBKs8FQERuJkI8GXzw/RKvN9zn21yxE3fOGrEqZu8OH0zGkmjr9CA3T0P2uZHnNqe8rpvJjMUFxEQAREYdwKc3s4N39am1uNKfhau5mahNXoJy+t3YVVqB5Je3+jzT8c9VvJQBG4MgWwBuHgVeH27E9hv7Xejt8/cCfzGp4H7Nrip1iVRSXGXA+a0Ab/ylBvM/ebP3IZjf/kTZ8MXHwca29wu6xWt4lrzojsm7LVd7pizh24DVq8E9n1QYc1z0U1bj/HoMwpWxsHvVOjod2vHv/MS8N3X3HFvnMb9hYeALz8KLF80cNQZ11+/vhPgbu/vHwdWL3C7tz92u2/jCPs/NjUAK6f4I9kVjfJ/jLup9SeOuynlHAnnDuyb1gNT46OI88BfxmO4M8mDZ6r85Ppx7gsA7oJPPyut1vGAfNbNnOCU/8m+JM4nm7jCEwERmFwCHnAtMwO7uh/B6cwysIe5NXoR+WIU1/LTTZg3RDswLfoRTqTX4mJuHrZ3P46Z8Q8xP3lIo+eTm1oKTQREYLIJFIHWxCUsqduHbd2PI1tIoDHRgcX1+zA3cVTCfLLTQ+FNPgFf2GaywOETwH99HnhpJ3DqIydSf+F+N5p8++oyYR7E1Bfos9uAX3zS/chN4rgzOkeLOX36q8+40fYha6/5uAf09gP7jwCv7gKmNgFfeghItTjtSO+HXBSN/OfHPcvd1juBH78DfPd1gJ0K3NBt8woX92fvBdraAPiCO1Nw68bZkcDj2Tia/LWngC89AlB4m3AdEmjoB4Zdzeq/OJDrBfqzAzPIczmg2AugWnEeCnY8/rQ04Dx5suNnOWAepeb5yxH4zCRfEueTDFzBiYAITCIBruEqejjSvxF7e+5FZ246ZiTOYnX9e+grNGJ79xOIRDKYFT+Fuxp/grNXFqOv0Gzr0lfU7bSzgJu9q5MYYQUlAiIgApNPgOvME9E+m87OGUVR5FAX6UPcy1QeWZr8KCpEEZgYAtxcLOLWie89Bvz1T936awq3NYuAX3oM+MLDwNJ5bor1sKKVAi/r1qD/8lNuXfYfveBGwTkyvWmxv2a6khX+VPSPrrjR8w1LgGfvd5u7VXq89BvXf8eAggccPuI6FX78rtv4jRupPXsP8FvPuo3c6im4/anvRQ/YexD4o++5zoApTcDnHwC++AjQNmP8RqlL8byJ/qAwT7DDoA4osnOg0si4B/DUyPqkL9AnOf4S55MMXMGJgAhMHoEij05LL8DbnZ/G5dw8xCJZLEx8gLWpd3E6zbWVHri/SFP0qp33u6fnAezvuwvXctOwo+dRzE6cwOrUNv/ItcmLt0ISAREQgckmUCx6paU+FOjBsp/JjofCE4FJJcBdw4tu92+KVK6H5hTvp+8CuKv53euB6a2AR/E92ppnPsMNz3iG+GNuF/et+4ANy4GWuW5n9Yq2Fdw6co5y/84vuKPCGhoHpp9XdOMBuSJw9qwbKX9pO/DOAaCzB9iyCuBo/zN3A2uW+J0CHDHnKHAM2LYX+HffAV7a4aaY/+Jjbsr7rGkjTPWuGImP148U5h3dwH95Hvjpdn/H9/JRc5rkn3N+uR04cqbCsoIJNlvifIIBy3sREIEbR4Cj5qczK3Cw/w70FJptqvr6hrexKPkBeM45xTtrYbZX0+Ln8WDLP+JMdjkuZufheHotPsysxMLkB3Ye8I2zQiGLgAiIwGQQuAHzNyfDLIUhAqMQoDiPesDi2cDG5W7DNG76Nns2kIoBHkdXK4m4Sv5S6OeBhTOArzwOcO34jOlA8xy323rFM7MLQH0UWLsIWNAGcNMy+jHs5QHdvcC7B4D/8HdOlPN7WyvwhQeB5+4HNq8BZrT6O6Iz/p6bHfDqNuD/ewHg2enc9G79EuC25cDieYDH0YoR1pkPG5+P0Q1uuscOk/cOur6K4aJufTF5d8Y904y7zFcaZB/OfS2/S5zXQk9uRUAEbm4CkaJNz4wig5boZWxo+DlWpHYiFe0ER4l4uREiD/FI2kbUNze8gne7nrKj1OiO0z11iYAIiIAIiIAI3MIEfIE+awbw9ENAYwzgedr2CjDW14AiEPcAjkRPn+I2b+sbRdlxVLcu+f+zd6fBkZz3ned/mXWjcHajL/R9n+xmk2ySTVI8LFGiSMqSbK+k3dXI1nrCG971bkyEY19N7Lz0m3FMhGMndmbHR9gey7IsybosipJIURTPvsgm2ez7PtA3bqDuyo3/kygSDaK7geoCGih8UwEBqMp88nk+iS7mP5/n+T9SIjFsPI79rX62ZJrNlX/2YenxbdIT90srO8Is7hZruy0i9fZL//pGuCzcvqNSz0C4nvmpi5INhW9tknZsCpdt+yjJXOX4evkehC72wGT90omtlW62jQZ6m+tSCyqC81ooUgYCCExLARukuSR+Qk+3/qOCIKINDXu1KHbKzTcfOWTT/rtrgzhtePvjzT/UnOhl+V5Ja5IfKOFZ1hI2BBBAAAEEEKhngfBeQGq15bOs5/pOAjEL9m0pMAvobFDKeAL84BYZ3UfCB1IyFi4H9n98WXpwg/S5B6XlS6W5TVLczjncmGJZOju8rNq3X5YOng576Ncvk85elo6ck378htTdL/X0S0/eH64FXm8BuvV8W6+5rdX+uYekzz8h+RYFm9M4rk1bUkqb661GNIy8RnfwM8H5HeBxKAIITG8BW8PXhqt/qvnH7j+OjX6PWxZoqNQ4ZsVtSbVlicNqjV1x/y1t9HsV9WytDTYEEEAAAQQQqHsBC9QsABtHwHZbi0rgZz3ww1+VY9zw9rHOMdZrlYMq34cD/3nNYU/5xnVShw1hHxls+mG29gMnpJ+9Jf3Lb6Qzlz9ex/yeDdLJs9JPXpd+9a70iz1S/1D49cxOqa15VGI4G2xo5VuAOpEtJkWyYY+8M7BiopKXqjJbu/nYbdkEbs1syoJNF3ju4bC3/P610ur5EwvO3d/EFATmRktwPpE/MPZFAIEZJxD18mqPdYb1Hsd/9OJeTu3Ri+Pef8aBUGEEEEAAAQQQqL1AJXgdnb7BVo7JSbauuN2GWHZ4CxgtWK36IYD1sgdhRvHlDSMSuUXC+dFnL0pvfyj9crf0+vtS35D05DbpD56VnrpfamuV1nRIc1ukpgbpp29Jr+4Pl3SzYfKft6XXbB1zGz0QhIH+uevS9QHJeuPHvUXDIfXWQ58r2Ao60sXr0m/2SU3mNZGyLJ6PSCvnSUvmjNPPphhEwsR4//vXwuRuK9slr7J2+rgb8skdKw9c7EGLXdfK90/uObFXCM4n5sXeCCAwEwXGEZTf0KyJ7n/DwfyCAAIIIIAAArNJwAKz81el60PhPPCP2u6WdJW6rkpHz0mlkpROSi2NI4aff7RzFT9Uht9HpHJJutItnTgnvbQn7A23OrWkpSe3S5aV/ZFtUjIueSWppUHauUVqTEqpuPQvr4WJ0rL5MJB+9lFp4fCc+XOXpe+8LO0/Hgb/466pH5Z16Zo0mAnb/94J6f/5u+FkdRO837Jl0L7+dLi8nU0bGM9mD0Ms4367LRNnx9iScuPpBbd9baSAjRoYWU97PSoVylImFz5wsAcANnJhnFW6ZbUJzm/Jw5sIIIAAAggggAACCCBQbwLWi+t6O4MwwLKfq9osAC9Lr+4Ns6Dbcl0fbZ5UCqSevjCwbW0M109ftigMiG/bX9AoAAAgAElEQVQI+j46aAI/2FrnCnu0L12WXn03rMOew+EQ9W2rpecflZ68T7p3zXBwWhkSXgzrcN/68LsF7f/0ivTOMWkwKw1kpK88JS1cKA3lw4cPJzql0gR7uyutWb6w8pN0/tLHP0/kp2hEutY7fMREImELxscTkA8XbaY2T/1yr5QrSfFREbMtY2dTBo6eDw+wzPiWLb8WOYRHnWoiPOyLAAIIIIAAAggggAACCMw8gagvNaelBXPC3mXrYa1286JS53XJMqFfuj5GKV54rs/ukH73CWnFIsnOP9Fh3SNLtgByqCB1XpZeez8clm7LhNnDARuu/vxO6cuPS49vl1pbh3uMRz+AKIX12Lxa+mYqzBj/Ny+E63t/65fS1lXSnLawvt/4vPTUjjA7/Mh6TOXP9gBh++pwasBHdsHHDwzsIcnoJk64fvbAI5Cu90jf/mWYOM9GH7hpCMOd6DYK4Ng56cApaeGccEm6jgXhiIQ7rQDB+YSvGAcggAACCCCAAAIIIIDATBWwQKtjnvSFx6R1y6Ul7WFAW1VgZWubR6TnHgkD/as9n1TxfWn+HOmxzdLiRVLMdhlvD/RwD7/19H9UP0/KF6VDJ6W/+G64dvf1vjDxmi37ZQ8BntgubVg+PCzbhnLfLGoth8Hu6sXS//KcZEPHf/iaZL3urS2SH4Tzz+fvHB7mfQcPMT4pM8FXrA25UQ8aPMl61O1BiznXZPOkoZL0813hSAIL+m/YvHBZtjVLpM/tkJ5/JHywUYt14gnOb5DmFwQQQAABBBBAAAEEEKhbAUumJmlhu/T8Yul5i5RtqHdmAgHzaJyCtHmNtHnzcDA8+n373QI8CywtGdnNAuVRx9k65vYgIVcM526PHHpvRdgQcxvmbUPQn9oernX++YektSvDrOjuXHa+221WWFnqaJf+ty+HWd0tOJ/bLvk2HHyCGdJvd7qavG8PRQKpY670p18NfR7eJM1pCqeJV30OK9cLH7T88ZfC6Qh2HSqXzP52bNSDjbi4b520fb3UkB5+YFD1ST8+kOD8Ywt+QgABBBBAAAEEEEAAgdkgYEGnBeT2ZVsl+hr+dULfLGKz3unbBcITOUdBWj5f+r0npb5B6bF7pGbLzG5lBFIiKt23Ufp//5306/3SY1ulxUvC1yOVBwETacRwuemU9OTDkpVhiePuyGUi55/ovraknCQbTv5//VE4nz5SlKL2QMPaPxHr0ecOpHRU+uLT0vPPjH4z/N3OYUYRM7JrX6ON4LxGkBSDAAIIIIAAAggggAACM0jgTgK4sZpZy/Ky0soO6X/9WtjpnvSklD0EGD6HJR+LedLSDun3LMGcHwardxpQW9AZrbSj8n2stk6T1/yylKwEx1bfGtXZqGMFKVZJoDdWe2t4vkrxBOcVCb4jgAACCCCAAAIIIIAAAtNEIOZLbZV51BYIjp77HEhRT2qqLPdVo8C0VgHulDGOdqnViSch+L5d1QjObyfE+wgggAACCCCAAAIIIIDAVAtYcGjDpm+13YUA8lbV4b07E6g8i7mzUjgaAQQQQAABBBBAAAEEEEAAAQSqFiA4r5qOAxFAAAEEEEAAAQQQQAABBBCojQDBeW0cKQUBBBBAAAEEEEAAAQQQQACBqgUIzqum40AEEEAAAQQQQAABBBBAAAEEaiNAcF4bR0pBAAEEEEAAAQQQQAABBBBAoGoBgvOq6TgQAQQQQAABBBBAAAEEEEAAgdoIEJzXxpFSEEAAAQQQQAABBBBAAAEEEKhagOC8ajoORAABBBBAAAEEEEAAAQQQQKA2AgTntXGkFAQQQAABBBBAAAEEEEAAAQSqFiA4r5qOAxFAAAEEEEAAAQQQQAABBBCojQDBeW0cKQUBBBBAAAEEEEAAAQQQQACBqgUIzqum40AEEEAAAQQQQAABBBBAAAEEaiNAcF4bR0pBAAEEEEAAAQQQQAABBBBAoGoBgvOq6TgQAQQQQAABBBBAAAEEEEAAgdoIEJzXxpFSEEAAAQQQQAABBBBAAAEEEKhagOC8ajoORAABBBBAAAEEEEAAAQQQQKA2AgTntXGkFAQQQAABBBBAAAEEEEAAAQSqFiA4r5qOAxFAAAEEEEAAAQQQQAABBBCojQDBeW0cKQUBBBBAAAEEEEAAAQQQQACBqgUIzqum40AEEEAAAQQQQAABBBBAAAEEaiNAcF4bR0pBAAEEEEAAAQQQQAABBBBAoGoBgvOq6TgQAQQQQAABBBBAAAEEEEAAgdoIEJzXxpFSEEAAAQQQQAABBBBAAAEEEKhagOC8ajoORAABBBBAAAEEEEAAAQQQQKA2AgTntXGkFAQQQAABBBBAAAEEEEAAAQSqFiA4r5qOAxFAAAEEEEAAAQQQQAABBBCojQDBeW0cKQUBBBBAAAEEEEAAAQQQQACBqgUIzqum40AEEEAAAQQQQAABBBBAAAEEaiNAcF4bR0pBAAEEEEAAAQQQQAABBBBAoGoBgvOq6TgQAQQQQAABBBBAAAEEEEAAgdoIEJzXxpFSEEAAAQQQQAABBBBAAAEEEKhagOC8ajoORAABBBBAAAEEEEAAAQQQQKA2AgTntXGkFAQQQAABBBBAAAEEEEAAAQSqFiA4r5qOAxFAAAEEEEAAAQQQQAABBBCojQDBeW0cKQUBBBBAAAEEEEAAAQQQQACBqgUIzqum40AEEEAAAQQQQAABBBBAAAEEaiNAcF4bR0pBAAEEEEAAAQQQQAABBBBAoGoBgvOq6TgQAQQQQAABBBBAAAEEEEAAgdoIEJzXxpFSEEAAAQQQQAABBBBAAAEEEKhagOC8ajoORAABBBBAAAEEEEAAAQQQQKA2AgTntXGkFAQQQAABBBBAAAEEEEAAAQSqFiA4r5qOAxFAAAEEEEAAAQQQQAABBBCojQDBeW0cKQUBBBBAAAEEEEAAAQQQQACBqgUIzqum40AEEEAAAQQQQAABBBBAAAEEaiNAcF4bR0pBAAEEEEAAAQQQQAABBBBAoGoBgvOq6TgQAQQQQAABBBBAAAEEEEAAgdoIEJzXxpFSEEAAAQQQQAABBBBAAAEEEKhagOC8ajoORAABBBBAAAEEEEAAAQQQQKA2AgTntXGkFAQQQAABBBBAAAEEEEAAAQSqFiA4r5qOAxFAAAEEEEAAAQQQQAABBBCojQDBeW0cKQUBBBBAAAEEEEAAAQQQQACBqgUIzqum40AEEEAAAQQQQAABBBBAAAEEaiNAcF4bR0pBAAEEEEAAAQQQQAABBBBAoGoBgvOq6TgQAQQQQAABBBBAAAEEEEAAgdoIEJzXxpFSEEAAAQQQQAABBBBAAAEEEKhagOC8ajoORAABBBBAAAEEEEAAAQQQQKA2AgTntXGkFAQQQAABBBBAAAEEEEAAAQSqFiA4r5qOAxFAAAEEEEAAAQQQQAABBBCojQDBeW0cKQUBBBBAAAEEEEAAAQQQQACBqgUIzqum40AEEEAAAQQQQAABBBBAAAEEaiNAcF4bR0pBAAEEEEAAAQQQQAABBBBAoGoBgvOq6TgQAQQQQAABBBBAAAEEEEAAgdoIEJzXxpFSEEAAAQQQQAABBBBAAAEEEKhagOC8ajoORAABBBBAAAEEEEAAAQQQQKA2AgTntXGkFAQQQAABBBBAAAEEEEAAAQSqFiA4r5qOAxFAAAEEEEAAAQQQQAABBBCojQDBeW0cKQUBBBBAAAEEEEAAAQQQQACBqgUIzqum40AEEEAAAQQQQAABBBBAAAEEaiNAcF4bR0pBAAEEEEAAAQQQQAABBBBAoGoBgvOq6TgQAQQQQAABBBBAAAEEEEAAgdoIEJzXxpFSEEAAAQQQQAABBBBAAAEEEKhagOC8ajoORAABBBBAAAEEEEAAAQQQQKA2AgTntXGkFAQQQAABBBBAAAEEEEAAAQSqFiA4r5qOAxFAAAEEEEAAAQQQQAABBBCojQDBeW0cKQUBBBBAAAEEEEAAAQQQQACBqgUIzqum40AEEEAAAQQQQAABBBBAAAEEaiMQrU0xlIIAAggggAACCNShgCfJvoI6bFulSZ7ke2V5rq2e++5b902l7ZX9ZuL3yrWr5+s3E68LdUYAgTEFCM7HZOFFBBBAAAEEEJjtAhbPlUoR5RVXYEFeHW9DQUKFwFMxCNz3oXJcg+WUVJ75jY6pKPvyPCL0mX81aQEC9S1AcF7f15fWIYAAAggggEA1Ap6UD+I62LVab1+8R0kvL69eu8896WJ+hbqHrskrHlJXtEu7uparM/HZGT9iIBsktKbtrLbPP6S5id4Z355q/pQ5BgEEZo4AwfnMuVbUFAEEEEAAAQSmSsCTcorr/d61euutbdpx9UMlSvmpOvuUn2eOOvVI8BMF8txDCN8rKa/YlNej1if8sHm1uh5u1vK5nZrrEZzX2pfyEECgtgIE57X1pDQEEEAAAQQQqBOBsjxlvIRWnOvUl955Wc35wTpp2SebYaMCbN552LXsqSxfQR2M5Y+tKujS9nYVPW55P3nVeQUBBKabAJ9U0+2KUB8EEJh0AZf0aMTw1DqfSjrpnpwAgboV8OTmKTeUs2opDqq5MFC3Ta3XhjWWhhRVqX6nJNTrhaNdCMxSAYLzWXrhaTYC4xUIwkh2vLtP//0qkbi1a/jL2lh37Ry+Em6OLDmQpv/fJTWctgL2kVFyqcunbRWp2C0EAt+v28/3WzSbtxBAYIYKEJzP0AtHtRGYbAEbzpkrxZUtJerrxsaTuotNGizGVCwV5HtFZYq+uvPNk0065eVbYJ7wCmqIZqb83JwQAQQQQAABBBBAYGICBOcT82JvBGaHgC/15Jr14ulH9bMzj8m32YduLmJ9NL8UxDRQbtFgca+GvLL2+L7+9Oif1kfjhltRCiKyhE73th/Vv7v3H8JX6UGvq2tMYxBAAAEEEECgvgQIzuvretIaBGoj4ElZL67B/pRW7LqgLx14pTblTpNSbK3bMN1RSXIzET2Vgvr6OByINujDZat16ouLrYn1u3xQZZrCNPnbuivV4KHLXWHnpAgggAACCNRaoL7uRmutQ3kIzGIBC19jQVELh65py5XjdShhLaxENfZTfUV5fbG0BptTOu111OG1o0kIIIAAAggggED9CRCc1981pUUI1EbAxaqBokG5rtf2rQ3W9CslHom76Qg2SqDuNk8qBFGd71uoH5x6ShGVXW6/umvnLRpkD5Ns9Mfixiv6wopXFY8U6nd0xC0ceAsBBBBAAIF6EiA4r6erSVsQqLnAx33LNS+aAidVwIK3cr1l2h8hZmswX8nM0Q/OPKXrSiuox4cQI9o7+kdbf7rJz+qpufv17PLX6nvqwujG8zsCCCCAAAJ1KkBwXqcXlmYhgAAC9SzgHj6UfXUVmnRMC1QaHulRz23+uG2eFHia5/VrqJR0eRM+fo+fEEAAAQQQQGCmChCcz9QrR70RQACBWSzgkvp5gaJ+SYH9r75SBtz+ygaB5JUV8Uojcifc/jD2QAABBBBAAIHpK0BwPn2vDTVDAAEEELitgM2pr8N59bdst7XX5pzPtnbfEoU3EUAAAQQQmPECBOcz/hLSAAQQQAABBBCY9gINDVJ7u9TSIkVH3H6Vy9LQkHTpkjQwINmoiMoWj0vz50tz50r5vHT2bLjvyH1s31RKWrhQamqSrl+XOjvD3+18I89VKXf090JBungxPEeljqNzVpRKUl/fx/tZHSIRqbVVmjcv/NnObe0Yvfl+2A4rO5uVLl+WrLxly8K6j95/9O92rkxGOncubP/o9/kdAQQQqBOBEf91qJMW0QwEEEAAAQQQQGC6CFhg2tws3Xuv9Mwz0vbtUjqtj5YYsKD7zBnpe9+T9uyRurokC5Zts6D8q1+Vnn8+DIr/7M+ko0fDIHpk+yzI/eY3w7J/9jPpP/9n6Utfkp57TmprG7nn2D/bOf/yL8Og/nd+R3r00RuD+kpw/N570re+JR05EgbLyWS47+/+btjGf/1X6W/+5sYHDHbGWCysyxe/KJ0+HZZhgf6///fSypVj12nkq8WidPKk9Od/Lh06JNkDDTYEEECgDgUIzuvwotIkBBBAAAEEEJgGAtb7bD3lFvD+/u9LmzdLjY1SLhcGmPa+9Y4/8oi0dav0D/8g/fCH0qlTYYBrPeKbNkmPPy6dPx/2UluwP3qz4H/bNmnnzrB33XrLV60Kj50zJ9zberkTiTDotuC/Ugd71x4QWGBt3+0hwmOPhQ8I7HcLhO2cVs+HHpIWL5b+03+S3n8/LMseDNjr1mt/+HD40GF0z76de82asJ32sOCll8L97rtP6uj4uDVWPzuPbVY/q6eVZXWw48xydI/+x0fzEwIIIDDjBQjOZ/wlpAEIIIAAAgggMC0FLGC13uI/+iPpwQfDYeG/+Y303e9K166FPejWm/75z4e93tYTbUPDbfi2BaYWlFqAbIGqDXm3oeCjA19ruL1u+9h7tr+d9+/+TnrllTAgt302bpR++7el9eult94KHwJcvRqy2ZBx65G2QNuC395e6Y03JOuFt30WLAh74p98MnzQYD3tf/EX4RB2O599Veow1oWwetlwdtvP2mRfx45Jf/InYcBdOcYeYnz2s2HbX3xRMqv+/nB/q5MF/3YsGwIIIFCnAgTndXphaRYCCCBwxwKWAX3E9Nc7Lo8CEJhtAtbT+9RT0j33hMHo978v/eAH0oEDYZBpgfDevdKrr0p//MfShg1hMG9Dv998c/xaIwP2Sm+8Bb/2VelptocB1lO9fHn4+o9/LPX0hOew423ouPWKWy+3BdIWCFtwbnPR7aGB1dn2t4cJ1ktvQ+7Hml9+q1rbeSr1sWHtr78e9spXjlm3Lhwmb+ffty/szbf5+LZZUG51HNnWynF8RwABBOpEgOC8Ti4kzUAAAQRqJjC8LFlvca4rMuUPKO7lala8PClbbtBgqUURr6CmSI8int101+4UtyypWJZKQXi+qC9FZ9s6bLfU4c1aCdiQdAuGbTj34KBkPcE2H9uSulkvd2U7fjzsnd6yJRzibYH8/feHQXtln2q+WyBrvdmVzX624ekWHFsAXgnCK+/b95GBb2X4vAXKVl97iGA9/p/6lGTJ7caTaG5k2aN/tnNV5taPfM/qZ1+V8u38bAgggMAsESA4nyUXmmYiMG0F7AZx0SLp058Oe2JsGKYlG7LekqVLpQceCG9uK8Mud+0Kh3eObJANxbQho5ZkyW4gP/wwvAm1LMI2d9LmXlpCospmN4VWviUYeucd6cqV8B2riw39tPmfdmNrwzqt52n0MEqbE/n009LateE8UKuTZSG2uZr2/Xab3SRbG3fvDm/Kb7f/VL3vWbzqqbfYruPZbcqUG7UsfkTJ+HDPVa3qYZ1nCtRbmqvzubXyVNaq5AF1xE/K1i+ftCA9CBTxfT20ulX3LGqQL0+7z/XrwKVB5Sxgr/To1aqdlDO7BWxo+cMPS0uWhJ8x9rlkPeKjA1L7vbtb2r8/nFtuvdeWod0+j2q5VYJeK9N+vlX59r4F55UAvRJIW1Bur9nv9lXrbeS/wZHnr/V5KA8BBBCYpgIE59P0wlAtBGaNgPWO2DDLP/iDsNfIblIrywVZ0G3zNa2nxnpubFilzXW0jMEjA2Y73uZS2nI+1stiN8F242lLC33lK2HvlSUaqmyVG03LkGy9WS+8EGZAtptBS8r09a+HN542DPTEiRvPZTePFpxb9mSr1wcfhEM7rdfra18LHyhUznOz73Z+O6+dvzLn82b7TsXrnnUkR9VTaNeZ/EYdz2xTZ36lNqb2KOEPKeoNZ46uYV1iXt71mOeDpA4PPaCjmfu0sWGPliWOaHH8+OQE6YHke9ITa1v1xS1z1ZiIyH+jU8euZpTLl6Uax0I15KKomShgPef2gNGCdJtDbp8nowPzSrvs88yCcwve7XPPhpFXAuPKPlP53epj88MrPfzWlieekL785fAhqM1/v1lbprKenAsBBBCoMwGC8zq7oDQHgRknYDeg1htjvUW2pI5lHa706NgNofWq2+t2s2jZei1At55um+tYGbJpN7IWiNuXZUK2zYJo+9kCd+s5t3V1rbfa5jnaOazX24LrSiZjW57INnvPbo6t59x64sfarGx7EGD1suRNVk8Lsu2hgN2A22av2XltSKuV9e67Yb3tZwvOLRtzZS7lWOeYitc8qRAk1F2Ypwv5NTqZ3aKDQw/qWqFDmxp2aWXyoNqiVxXRiKGxNaqXr5JaI1e1KvmBruSX6N3BJ3Use682pPZqY8NudcRPaWHstGJ+vnY96W5kQKDzPTkduDSkZMzTpf68SmXXlV+jllEMAsMC9jlmn2323Ub+3Gp4tn0m2Nrk9vDRPl8qQ7rvBqZ91tpnqs3/tkR19sDUPnuffTYciWSfWzaqyD6Hra5sCCCAAAI1EyA4rxklBSGAQNUCdmNqPTR2U2hf9rtt9t1+t/csY68NTbe1e23out3E2g2vbZVj7LsFv7ZVbhorZdmyP7Y+r/VMWUBuw92tLEvAZBmI//7vP84KbMdbOZXgPyzxxv+3XiUr2/ax77Y+sc0dtaDcNkuWZL3+FujbfNPvfCfs8bcbdNvfgvqJJlO6sQbV/+aC8rj6inN1Ib/a9ZQfyTyg8/nV6ivO0Zrkfj3U+KLrxbae88kaZh7zcloSP6btjUl1lRZoz8BndLWwWMezW7U2+Z42NuzSovhpzYt1Kmn1sIrc0UhaT6Wy9KtDXTpwqtemvqtzqKisvWhd6u56Dp/AfregfeT5bAUre73yt2XHWeJoKygy4nW7MlaWHT/6fZvrbq+P3KxMK7tS7sj3+Ll+BOxv4labBfI2wsf97VSRkfx25d/q3CPfs89Rq4stj2YPN+2zzh5UVj7LfvlLyZLJ2eeXjSLi73akHj8jgAACdyRAcH5HfByMAAKTKlC52bTA3DIHW+ZjmxNuwyutl9rW/b1ZAF05tlJB69m2YaNWjgX5NqTcbiwtQ/Lq1WH2YVteaPRxleNv9916kWw4fmWzXnxLBmX1s4cLtkyRzTG/m73lwz3lFoBfzi/View9Opx5QGdyG9VdXKBy4Gt54rA+1/otrU+9o6Q3GAanIzvHRscX1bw34hhLNLcieViPBT/SULnJ9aAfzWzX5cIyHc/dozXJ97UptUeLEyfUGr2ilDdQ/ZB313Mu9WeKagoCRX1PJQuwrU1BoMZ4RMua4u5P4NJgQW2piFpiEUU8mxUfqCtb0pVMUUOFkpIRXx3NSbUlourJFXVhsKBcKQhj+SBQKuprXiqqucmo8uVAnYMF9WaLak/HtKgx5nLQefKUK5d1PVvS9UxRudFBe+Vv6RbfjdLm77NNQwH7t28P5uy79UTb1802G0Fko2zsc6PymWGfRRb4jjf4rexn36v9HBtZP6uTfVZafeyhoo1ashFA9pDTHnbaw1H7DLWtcm77eaxzV16z/Spf4ZH8PwIIIIDACAGC8xEY/IgAAtNUwAJa65W2mzrrvbF1cN9+OxxuacPUx7PZMNHKHE6bK2mBtAXMduNpQ9lt7V9L7GY3kZUbyfGUe7N9rK6VG1c7r92YV85/s2Mm4fVK4FZQ3GVHt6D86NB9OpK9T2dz69VVXCib9x1RQa3Rq3qg8WU39zvhhRmS7b1MOe2Gv0e8kgvYXdAuKReklCk3qRhEZb3gDd6A+15WRLmgQZlyg4IgoriXUdrrcxnZi4opU2p0x3peWUlvyH2tTh7Qw40vup5zq1dfaa56M+26mFupE5mtWpN6XxtSe9zDg6ZYtyJeTjY0fkKbxbCetLojrf/pvvlqSkb04wPX9esj3RrKl7V0TkJ//Ohi+Z6nX5/o0X1LGrViTlKxiK9yEOiDi4P6xaEuvX+uX22JiJ7fNk+PrWrRkasZ/f2eSzp9NaOCnaMUaEFrXM/d066HVzTpbFdO//zuZXV2SV/YNk9PrmlRKu66ytWfLertM/365aEunbyeCXvmx9ko90zBjSewstimnYAFtDadxj6/bLSOTYWxzwTriR69WRBsWdoteZztb0uW2WeTfRZVRgPZqBz7XBm92Wt2vPW6W6+3PRCoTJ8Zve94frfPKauDfcZW1jm3elh7LImmfVXmm9vrVk/7suH7lc+80eex96x+Vk871gL7WnzOjj4PvyOAAAIzXIDgfIZfQKqPwKwRsHmPNpzd5nnbkPTf+q2w98YSE41nG3kjaIG6JWmybO5202g3ndbzPXKf8ZQ57ffxVA6i6ivP1bVchz4celhHMvfpVHaTuooLVFJUURUU87Ku99X3ym6Js3O51VqTPKCEN6SrxQ6XsO1yYbnSkT6tS76r1cn3ZPt25lbpg6FH1VNq18LYGW1u2KUF8TPKltNu/vqxzL3uZ0vytjX9mlpi19Wfn6MPhx7S2fx6xb2s6xlfnXpfcT+r9tgFNw/9jDa59yz47C+36XBmrs7n1+hYZpvWpN7TpobdWp74UMVgRAb+cV2LQJ7naWlrQs9snON6sQ9fGdIbxywQkuan4/riPe2al47p/qWNWjevQYWy5a+X0vGIdi5vdu/lciUNDhZc4P7c5rl6MlfSvnP96nTBeSCvFGhJc0yfWdeqx1e36icfXFOpUNbONa3606eWqKMlrlyh7OpiSensAcCFroxOXh2aUHBuTxpy5QZdyi/Touh5xZWhF31cfwdTtJON+LEeZvusssRwtja45bqw4LYyJceqYkPGLSi3lSkWLJAOHgwTUVoQa59NlkzOfraVIGy6jH12Vabd2OeX/W4PLa3X3faz/Bn2uVjt55kF53Zee3j5k5+Ec+FvRmbnszwbNk3H6mA5QuxBhLW98hDCHkxa/g0bIm8Bun3W2sgle5DAhgACCCBwgwDB+Q0c/IIAAtNSwIJpuwm0JEQrVoQ3sU89Jb3+ejj3fDyVthtVuzG0JHG2TNHjj0vPPBMeafPQ33wzvOG1G9OxeqfGc45ptI/vhYFoV3mJftXzFR0ZuhV8PugAACAASURBVM/N5bZl0mwct2Vgj2vEWsvyXM/6W/3PKebntDh+ymVqv1pYot0Dz+jA0MNqj110xy1PHHK94Ofy6/Srvt/T+fxabUm9rbmxS5ob79Rg0KSj2e16qfd/VE+xXQ81/twtldYc61JveY4buv72wDNK+/0qtnxXixJh4jdLTmc965WJ3tbrb1ndA89zQ95tCP6p3CbZ/PgNyb0qZK7JtdMFIWP0KN7kegRBoGy+rP5oSbni8FB0G/JfCjSYK2lxS0JbFqX19tl+vXa8x5XyxOpWbV/SqGc3ztHVvry+tfeyfnbwup5c26p7Oxq1uCWuRCANlgLFExF1tCU1rzGms91ZvXS0Wz3Zkr68tV0bFjTolWPd+tWH1xWNR/TpDXOUiPqam4pVmn2TWt/4sq+yvEhM3f5a/bT7D7Wz/HNtanhbCT8jr9qg7MZT8NudCljv8759YaBt03Hs88YC0u99L3zQaNfJPm/ss8gSrz36aPi75a+wB5EW3FoPun3OXbwYJmj75jfDkT6vvRZ+9tkDRjvOVoqoJKi04NyC6zv5O7B6WVBdyaFxM4vKlB2bZrRzZzhP/d/+27DH3ZJeWh02bw5XzbD37aGCBebWnjup383qw+sIIIDADBcgOJ/hF5DqIzBrBCxgtt4mW4LMAnPLtG5rjduyanaTd7MbvUrvjK1B/od/GPbwWA+OrT9sQ9kvXJB+9aswuZENuaybLRz0nAuSOptbpw8GH9FAqUU2XD3q5z/Rw2r9w5kgrYFCkwbKbSrL/vNgc62jrjd9sNysdLlPxXI4x9T2t+HsmVKTC+qtt9yWY3MzoANf+XJCg/ZeuUl5pRSEGc9UDiLKBilZebblg4SFmeG077D//hNXwN71vZJKiri69BTnabDcopiuf2Lf8bxQGQ4+el/3TMaTBnJF/c2uy/r23kt6/3SfbID/Vx5YoD/51GLdv6RRO1e16IUPr+vQyV69d2FQ9y5u1H1LG/XqvJQGLg5qSVvS7bO8LalDl4d0oT+vVENM8xvjLgC3TPF//dI5XcoW9cL6Ni1tT+nY5XH2mlvlJSVivtoaG1VoWqDfDDysc4UN+kp72c3PT/qDo5vG73dLwALUH/wgXI3CgtNvfEPavj0MuO3zzIJr+zyzzOgWDP/Lv0j//M9h77p9plmQbcH2yy+HuTFsKbNNm8IHlZbd3R40Wrm2lKPl1fjRj8IpQDf7PDQH+0O34Nu+brfd7kGlfb5az74Ngbd2WD3+w38IRze98044jN1GBNiXZXy3z29riz1svdVm573duW91PO8hgAACM1SA4HyGXjiqjcCsE7AbSetBt+XQfvpT6f77wx4jyxxs884rQyhHw9jNo92oWu+NDSm1n20oqL1ua5TbjfD3vx8eNZGbwVvd/I6uw134PQjCpFDz/DP64twfal3yHbdMmq1hfr24SIEiinr54XnblposUEvkmjY17tLaxH43pN0iyXnRC9rR+At1xE6qMdqtFckPXe+59dwuSRzXEy3fd8nkbG3y+bGzbu56g9+vdcn9KrQmlSmlXa95o9/tQv2WyHVtT7+q5kiXe1CwLrlPtr8Nr2/0e9Tkd7vEdFZ96wsvBREVg7jrzV8WP6p1qXe0Jb3bDa0/c61J5eAJhQPPa4fckynpL9/q1Imz/crHfPc389qxbm1e0OCGoFtPd9z33NroJ65nlC+W9cyGOXrtRK86Lw5oaTrqesjzpbLeOtWrwxcGXIL2/Z0DenbTHH1xS7tLRHegc1D7Lgzo5feuaTBfkhLjX2jdrpgXiSoas4Df01CpWYVyrOYWtVOdpSVZAG6fV/Z5YT8/+KC0Y0c4xN1I7DPH5mnb0PCf/1z6b/8tXPmh8lDR9untlf76r0PAL3whHD1kQ8htH/tctM8zy6Hx3e9K//W/3rxX2h4+2mdoZbPAf/Rm71uZNsrIHhaM53POyrFRTf/lv0j/5t+Evef24NSCddvsvDbM/oc/DNv36qs3/7y2c1p77MtsxnP+0W3gdwQQQGAGC4z4lJ7BraDqCCAwewRsGKUNQbeeGuv9tsztFmTbzdxYW6V3yG5ebf6nDRO1m1r7bj071mteWZvcbgbt5rRyU2hJjkbeJI8sv3KTa+e1c9gx02irBKxuiHrihNqjF7U+uc9lZ7ds6Jah/UphiUvcFlVREa+gpJfRqsSH2tLwhlKRfhew21rjrc2XXYBs88xtHrolf7NtReKgm2tuPeYW6NtyZzHlFfV7tKXhLa1N7ldZvps/nvIH5ZUDN6d8Z9PPdH/6V658G4Yd9zOuHpYxvqc43/WSWw+7BeUJf1BLE8fc3PSNqT2y+elt8SsWtktqmjTxiO+p6HsW97rre6Urq7NXhtSXKbqHBpY0brBY1hvHurVv4xyXPG5BU1zxZFQdbQk3N/1Sf0EfnO/X1e6sYomofnLgmhrjvh5Y1qSvbJ+vr2yX9p0b0I/eu6qXDnfpbG9OitymN3P4zyxXLKt3cEBB8ro2LejWw80/14bUPjcVwVWwIjPc0175le9TLGDBpT08fOGFcK61Ldto88pHfs5Y0H7sWPhZZL3ko3uV7Xebh/4f/2P43ZZ/tHnq9pljn082v9uGlduDylutYGE97baPncs+Qy3oH73ZcHPr3bby7DN2rH1GH2N1sLJthIBNEbI59tZLXvnstQen9vn7yivhSCf7DL/ZZkP6rW1mYpnh7TsbAgggMIsECM5n0cWmqQjUhYDdCNqNqt3s2jxOW67MbgQXLx67eZXA2QLxv/qrcLio7Wk3vHbTbInmKr0zVrYlK7KbSZubbkNOrQdp5A2i7WtBu53TAnMbSmo3x/baNNvCuCxQNCgo6vdqaWJIc2KXXRB3MrslTA6X26wrhaVuTndPca4ODD3ksqI3RS0jekkx5RSLjH0zbUPkE5FP9r55KinlD7iv0SQRr6i016t0JQb1bGh7UmezG/RG/2/rRG6LS2KXjAxpeeyQViU/1KaGXS5Le1v0sizItzJyQXx4qPzoM9z573aJs8Wyy7ru1i+3ZdZSMbU1xYezrEuB5cwqBzp0tl97z/Vr++JGrZyb1I71bXp0bZvmNMS073y/zvflZeF8uVjWB8d7dLlzUJvWtuqza9u0ZXFa93SkNb8xplQiou+8c0XXBgvjSgpnq64Vc1k1Zg/pc62/0Kamd9Tk9TiT45l7JC/Qgtg5NxLhzkUo4Y4E7A/KglwLdi34tp7ySuBqBdtnh2VYt8+isUYAuT/I7Me94xa8Vh4O2ns2j9t6pu34W30O2fBz61233mn77BsrSLbg/tvfDuton2v2EHM8m32eWmZ6mwtvgb31llceWNrnqn2GWv1GfpaOVa49NLDj7Rg791i9+2Mdx2sIIIBAnQgQnNfJhaQZCMwaAbsZtRtZW5PcelkeeigMzC2YtkRDlRvC0SB2jPXeWK/RzTa7ybWbZ7sptczHlhX+xImwB8duru2G2OZ4WtZlS75kv1uvvfU22bHTeQvkho7bsPJGv9cF6SuTH+pMdoMOZR50idau5he7n1/u/aqe9f9WixMnXY/4pC2j7cllXD+fW6M3+p/X/sHH3TD7Ncn3tCJ5UFtSb2lJ8pjmRi+6oe+RytJpk9wbnIr52rG0SYP9BV3uz8sC9B2rWrRzVavaUjEdKWaULwWyXNN9+bIOXBpUb6boAvTGRFRbF6XdWujvnO3Xua6s4jFfC1oTWtYcV89Q0WWHP36sV/esbdH/+VvLtLUjrcdXt+jdc/261m/B+e3/kNzIiKCsRu+aNqd2qTnSq2ypQZYh/7W+L7n5+TZ9YEvDm2qJdLkpBbcvlT0mVcA+g+yr2q3y8LDa4y0wvl1wbMGw5eGoZrP62WenfVW7WQBvX2wIIIDALBUgOJ+lF55mIzDjBWzdcxuiaUM8rQf9ZsPaKw2t9KBXfh/ruwX+NjzThr9b0rhPfzos1xIY2fksc7HNdbd11q2n/vDhMKuy9Z7bjemttps9NLjVMZPxnk25V9HNL7f53e2xTjds/FxunT4celAnc1t1KLNDrdFr+pT3Qy2Mn3FB/WRUxYbDX8yv1L7+T7te/LboJa1JvK+tja+7+ezzo+eV8vvdsm2T9oBgZMOGg/7mZER//GiHlrTEte90n+LxiL60bZ4bjm5zww9fHtJ16+GOeCr4cvtYgG5BeUdzQq2pqN463efWQ7/anVO6IaaHV7boGzsW6nxvTi98cE1d1zJKxSPuWZIt7+b7nltabWR1bvezjXC30Q02msC2wVKLdvd/1j3ksNEINo9/QeyMmiI2CuKjJPi3K5b3EUAAAQQQQOAuCRCc3yV4TosAAiMELHC14eMWQI8Moivzue21yjDOymE2LHPXrrB32wJlW//XyrF9bbOf7cuGkNp3O77yXqWMsb5br48lLrK1eh95JFz+yDIpW++4lbV6dbhmr/Wof+tbYc/5WL1RlXPaMda2Sn3GOufdeM1WcVLJJWZrTPZoUfy0FieO6Vxur1s2zdYVP565180jt+HkH/Va16iuNhe9rzTXrbluc9+XxI9pY8NerUx8qMWJ4+68Loe7Bcw17im3ZGrxiKdExFfUrsvIzUYYRDxtWphWe2NMj69pUyLqaf38BiVjvl493qNfHurSlb68FPVl4yWOnB/QnjPh0PaFDTENFco6eT2rs90518Pe5IXrpG9e1KBHVjZr/byUeocKakvHtGpu0u23+0y/TnZlx9VrPrK6ljbPstjHLG+Aim6+vmXjt259yzcQ9WxQfY0Bb6wAvyGAAAIIIIBAjQQIzmsESTEIIFClgPU423rANpTSeq4t6K7Mm7Sg99KlcF3frq5PJkqyYey/+IU0b17Yg27zJStDKq0sG6Jpx9tyRta7PTrR0lhVtnmYv/51+I7NebQh7O3t4TmsTBu+vnt3mOHdgngL2sfqNbc2WJ2tjjYf1IazjrXfWHWYytdckF5WOtKrtan33NzupYmjOpXd7JY8s3XRm/weRfyhmtaqHETVV2xzc6TXN7yjJYljWpY44oavuxNNVjwZSAP5ki705V0Q3Z8rhSkHhmN0O6299uqJHi1vTbhA2nq1M4WyLID+53ev6u1TfRoslF3Pua2ZPpQr6d0LA/rw0pA6WuI615PT7rP9ujRUsAjZJY7bf7ZPP3j/mp7bNEfL2hLy5iRdMy/25fXS0R69dKRbl/pyEw7OP2LypMZIjx5uetGZ2oOXrenXNT923v2eLafc0PaER4Ktmv4hUxgCCCCAAAI1FCA4ryEmRSGAQBUCFuxaAPu3fxv2fu/f//G8SJsj/uMfh4GxJQkaPV/TAnkLpC3oXrEiTEh04EBYCQuOLTC35EYdHeESbJWs7LerpgXltvyRPTDYulVqaQmHt1twbsG7vW4PBaw+9tpYmwXktryQ7W8PH2xY/FjJnsY69m68FrgVypXws1qXelcrEodkveeTuWa2LaFmGd2bo10usHTNvglnbUjCPuST17L6xz2XlIz62n9hQDnLruZGNoTLtw1kS/qHvVeUCgLNb4krGvHdcmn7Owfd/r3ZogvMXZ08T0E8onfO9euv3ujUvMaYzvfltOfcgK5niq533SWOs7XN3+rUqasZ12PvBnEE0uWBvN65MKBj1zLD/dujevLH23Dr8fcK2pDa6xLxxby85kYvud7zruJCdeZWuZ9XJQ4oGbG/2/EWzH4IIIAAAgggMFUCBOdTJc15EEBgbAELoq3H++/+7pPvW3BuX7fabI64ZSAevVm5lj34O98Z/c74freA3xLO2Vc1mwXulnnYvmbSNhy0xf2sW5/crZc+CfWPKK95sRGJp6YiWByOe89cz+jMpeHEXFGbSmHTIIYbaatTBdLhy4M6crJXJX94eoS9bRO3bX83gXsESsTTiWsZnbAyLfWAlWdLolX28zzlAulg56AOnhu4MTC280ZtOsaI84woeqI/2uOHFclD4WGBdL24UPsHHteugc+pIdKvZ1r/u9an9rkh8BMtm/0RQAABBBBAYHIFCM4n15fSEUAAgZkpMBwsT9Z85dFTvacUyQLhROTjUw6PfrA42eplb8ejvjzbxwLs8VTWHTSizI9LD39yQbjlThj9xiT8PnztbK34s7kNerP/OX2Y2amEN6j2aKebPmDTGLybjfqYhCpRJAIIIIAAAgjcXmAqbhNuXwv2QAABBBBA4C4LRHxP6VhEiajvsqff5erc8ekt6V7EK6gx0qsGv09pv08JP6OyLdJuQwW84MZe/Ds+IwUggAACCCCAwJ0IEJzfiR7HIoAAAgjUh4AnXRss6BdHul129p5MUYHrMa+Md595zazMQbf55wtiZ9UU6dLjLT9QU7RHXlBWMYjL94ry3Vj8mdc+aowAAggggEC9CRCc19sVpT0IIIAAAhMTGB62fvxaRv/3j0+4KeNXsqXh+eYTK2q67R33clqd+ECLYqddL3o60qegLLee/dncei2On5Bl50/5A9Ot6tOmPoE8RUvFmyd/nDY1pSJjCcRK4XKCU5HWYqzz8xoCCCAwEQGC84losS8CCCCAQN0K5IqBOivL7bkEbfXRVEvuZ1+2FYOYjme36uc9X9fJ7FatTb2rp5q/pzWp98Qya2Nc78BWQPTUmVigg22r1Vio7ZKCY5zxrr1ky+/ZaAvfK7upD8UgqvKUJEmY3CafSC9RJkhIwcwdBTO5QpSOAALTSYDgfDpdDeqCAAIIIDAhAevVDFOt2/c77BtzRc2EG/iwjmHbJ8SlkiJuDfsT2W26VFjuhrVvTO3WsuQRNx/9TgknVptpvncgRYKS5ke6tG/zZr208mHFguI0r3T11cuVUxootaoQxBTz87KlDlP+8KoG1Rd71488F1uodc2nlfLCB1R3vUJUAAEEELiFAMH5LXB4CwEEEEBgegrYEm/lwFOxHJEvb/Z1itlzCM937Z9IkB71ilqV/FC23rn1lK5LvuuGvMcJXD75hx5ISeV1/9yDanpkUH7kDh/+fPIM0+cVXzqV2aLXeh/WpcIydcRP64Gml7Sh4WC4POD0qemEa3Jv6bAWp66oPdZzx8/vJnxyDkAAAQQmKEBwPkEwdkcAAQQQuPsCtsRbLFJUR/K60hpSYJnHZ9FmDyfSXl4tcevZHH/bIypqbXK/8q1JXcit0vLEIS1PHnbDmftLrSoFMZfZ3eaqs0kxFbWiuVMrWjrrmyMivdOX1qEgoZ7sfLUnL2pb+zl9quXtGR+cuwtn/0QqX/V9JWkdAgjMcAGC8xl+Aak+ApMpYAHQZK1zPZn1pmwb6B3Ir+N1rCMqaWH6qr6+5mfy7e/UK8+qy27BuecFmp/qUtQrTSQ+l++VtCm1S2uS+xX18m5awOX8Mh3LblOm3Ki1yXe1PHlEURVmlelNGzv+Zx83LWLav1G2ufUWwAby7HPDvtzvE3r2M32bORuu4fTVp2YIIDABAYLzCWCxKwKzSsDdm/nKeXENRBvqq+m2xLPKIx482BBpW/u5frbBSEp5LyYL4upuC6SoSlqavqw/2PijumveuBtUCTiq6BGMeEWlvHD+dHdxgd4feky/6fuSBkvN6m6ar+ZIt+bFLoy7KnW/Y8W6rhtaeRQbfNzJXMXfVl0T0TgEEEBgkgUIzicZmOIRmKkC1uta8n1dbJ2n3Su3uLRbM7Utn6x3eKftbkWHY9egzoLzgWhKx+cvrevec3ddZ0XQ9Mm/4Jq94km9pTZdyK/SlcISDZWadDxzr7alX9e8+IUJ9cjXrE4UhAACCCCAwCwVIDifpReeZiNwS4FASimr9tZevffwev1w52/Jr6M5vYVyXF3FBbpeWuh60Bv9Xi1NHL8lyUx7sxT4sqHfmxuP13eARXB+Z3+agdQRO617Um+qq7BQPaV52pJ+U4vip1wS/MCt+j481PnOzsTRCCCAAAIIIHAbAYLz2wDxNgKzUqAstcb69cWVL+sLK19R4NXR0GhPul5YpBe7v6EfdT8vy1K9Pf1r/WnHn9fdpf5o3jkBbN1d21o2yNZA35Z+Te2xTvWV5mpJ4qjaolcUlH1ZkjhLDhf3M/LdJORanpmyEEAAAQQQQGCkAMH5SA1+RgCBGwQsJI/UYaKtqIquVzmiQPYVVdnNYb6h8fXyi11EgvN6uZqT1g4L0C1zu/WUW8K4fDmp87m1+nnP17U4cUKPNP1Uc6KX3PJrk1YJCkYAAQQQQGCWCxCcz/I/AJqPwG0F6jKw88KA1WUzDxS47MS3lWAHBOpWwEZZRCzru0oqKqZL+WX6Wc839Hb/s2oa6nJB+aPNP1Fb5ErdGtAwBBBAAAEE7rYAwfndvgKcHwEEplzAxeQ3pLiz0MQbkb19yqvECRGYVgKlIKpsuUHZoEEqlTVQalExiLlBGHU0yWVamVMZBBBAAAEECM75G0AAgdklEHgaKjdroNzyUTBuv1/Mr3RJsFwG99klQmsRuEHAV0lzY5e0s+mn6i+1ufnnWxreUqPf49ZEd8vzefY4qy6H1dxgwS8IIIAAAghMpQDB+VRqcy4EELi7Ap40VGrUqexmN5/WsplbiHG1sFh7Bp7W59v+1iW/uruV5OwI3F0BS/zWGOnRPQ1vKulllI70alnyqBJexv1b6S/OUVO0yyWQI0nc3b1WnB0BBBBAoL4ECM7r63rSGgQQuIWADdXtLKzSwaGHdLGw0iW+st17i+16d/BJbWp4WysTBxX1CrcohbcQqH8BC7qbIj3amn5dvleW55V1rbBYewc+ozO5jVocP64dTS9pYew0Pej1/+dACxFAAAEEpkiA4HyKoDkNAgjcZQFPGii26vDQAzqR3apMOe2SXFnPeUkxnc+v1q6BZ9QevajW6DW3/vldrjGnR+CuC0T98EGVzTc/kd2i3QNP62R2q5Ymjqkp2q3WyFWl/IG7Xk8qgAACCCCAQD0I+PXQCNqAAAII3E7AgotzubX6cOhhXSku/qi3L5w3Gya82j/4uE7nNipXTt6uON5HYHYIDE8rt1EnhXLCLTpoDS8FEeXKDcoFSd2QW3F2qNBKBBBAAAEEJkWAnvNJYaVQBBCYVgKe1F2Yp/eHHtW5/FoVgoRb5/zGOtrc8yXaPfBZLYid1cL4GTGf9kYhfpulAoEU97La3PC2+stzNCd6WUvjR3VP+nU1RXtULFsWd89NByFJ3Cz9G6HZCCCAAAI1ESA4rwkjhSCAwHQWsF6+07lNOjD0iHqK8xRV3nX2lRUOHrLEcDG/4JaOsn02pXarOdKlxkjvdG4WdUNgygQs6J4Tu6xHmv5V9za8qoZIn5qjXe5B17VCh4bKTVocO6lUZIApIVN2VTgRAggggEC9CTCsvd6uKO1BAIEbBXy5HvE9/U/rUn65Il7BZZlujV5VJThvil7XqsT7inh5dRcX6O2Bz+tKYZmC4eD9xgL5DYFZKhDIzTHviJ90eRnKQUSduZV6oeeb+v8u/Zle7/+Cy+VgvehsCCCAAAIIIDBxAYLziZtxBAIIzBQBTyqWYjo8tENHhh7QQKlVrZFrbomotcn9KgdRN/d8YeysHm/5gRr8AYWJr7bq4NCD6i7OmyktpZ4ITK1AIFmP+Rt9v63Xer+os/n1eqn3a9o/+ISyQXpq68LZEEAAAQQQqBMBgvM6uZA0AwEEPilgPeOd+dV6q/9ZdZUWKuFntDp5QBtS+9QWvfJRz3mD36+Nqb1u2aikP6S+UpveGXzKLRlVVOyTBfMKAggo6Q9qQfys5kQvSYG0IHZOHfFTinl5dBBAAAEEEECgCgHmnFeBxiEIIDAzBILA18X8cp3Kb1Sm3KCliePakn5LSxNH3Rx0SzNtQ3BtEK7Np3206V91OrtFF/KrdKGwyh27Jrnfrfc8M1pMLRGYOoFGv1ebU7tUaE3oUn6pHmj8lRbETyuigsXqDG6fukvBmRBAAAEE6kSA4LxOLiTNQACBTwp4XiDrCW+KdCvhZXVf+hWtSe136zIHQZhX2oLzMNN0XuuS7+qhxhfdnPOYl1VDpF8Rr/jJgnkFAQRcdvZ5sfN6sPHnygYNmhu96P69dRXm63jmXkW9vFYkD2mu9ayzIYAAAggggMBtBQjOb0vEDgggMFMFPJW1OH5Cz7T8dwWKaHXyfc2PndNgqcUF5JV2uV6+IHDZ2Xc2/VRzYpfcMmqrkx8o4WUqu/EdAQRGCcS8nObGLrp/T75XVndhvvYMfFaWgDHm5/RA6SXdl341HPo+6lh+RQABBBBAAIEbBQjOb/TgNwQQqCMBLwjUFr2snc0vuFYlvSHX2zcQtNyklYE6EifdEHfbIeENKeKVbrIvLyOAgAm4sSde4Max95Xm6HDmfh3L3utGnVhuh5WJg+6BlxvrDhkCCCCAAAII3FSA4PymNLyBAAL1IGDBtc2NdZt1kd9mi6iodGV983Hsf5vieBuB2SEw/G8l5Q9qXrTTPeCyYe02pN3WPicwnx1/BrQSAQQQQODOBAjO78yPoxFAYCYITDTInuj+M8GAOiIw2QJBmFhxZ9MLaoj0Ke5ltbFhrwvWC0FcuaDB9bKnKw/LJrs+lI8AAggggMAMEyA4n2EXjOoigAACCCAwXQUqSeDmxS7I88ouQVw5iOhSfoVO5zYq6Wd0T+PrSmlwujaBeiGAAAIIIHDXBAjO7xo9J0YAAQQQQKDOBALJ90pqina7OejlcsQtTfibvt/R3sHPaH70rGwlhHsbfyPLCcGGAAIIIIAAAh8LEJx/bMFPCCCAAAIIIHCnAiNi7sFyk45l7tW7g0/odHaDuqPtmjdwXpvTuxRTzg1zv9PTcTwCCCCAAAL1IkBwXi9XknYggAACCCAwzQQSXlbLEke1KbVbQ6UmLYid1Y7Gl+WrGAbmnkgWN82uGdVBAAEEELh7AgTnd8+eMyOAAAIIIFC/AoFk66AvTx7W0963tSa5X+lInzY17FLUK6pQTqi/2KbGSI9LHle/ELQMAQQQQACB8QkQnI/Pib0QQAABBBBAYIICZ6vFhQAAIABJREFUtgZ6wsuoI3lCc+Od8lVS3M9qoNiqN/qf19XCYt2bfk2rk+8r5Q9MsHR2RwABBBBAoL4ECM7r63rSGgQQQAABBKadQEx5xfy8yvLVX2rV3oHP6OXer6q3OFfdpQVubPva5HtK+EPTru5UCAEEEEAAgakSIDifKmnOgwACCCCAAAIqBVH1leaoq7hQfcW5ulpYosFyswvc4UEAAQQQQGA2CxCcz+arT9sRQAABBBCYQgEb5t7gD2hDap/O5da7Ye33NLyhRfHTivm5KawJp0IAAQQQQGD6CRCcT79rQo0QQAABBBCoS4HKHPQ1yffkt5Z0vbhQyxNHNC9+XsUgpmvFDpUV0dxopyzTOxsCCCCAAAKzSYDgfDZdbdqKAAIIIIDANBCI+gWtS72rfJBUxC+oUE7qVHaT3hv8lAvSdzS+pOXJQ0p6zEGfBpeLKiCAAAIITJEAwfkUQXMaBBBAAAEEEBgWCMLvlrm9HPi6kl+s3QOf0xv9zykIPOWCBrfE2uL4CcgQQAABBBCYNQIE57PmUtNQBBBAAAEEpp+ADXUvKab+UpsGS82y322JtXw5Mf0qS40QQAABBBCYRAGC80nEpWgEEEAAAQQQuIVAIHle4BLC7Wx6wS2pZkH5o80/0cL4aXdg2fflBYH7ukVJvIUAAggggMCMFyA4n/GXkAYggAACCCAwgwUCKeENaUvDm5ofO6tCkNCyxBFFVFShnNChoQe0NH5UzdEuRVSawQ2l6ggggAACCNxagOD81j68iwACCCCAAAKTLGBD2eNe1vWg26l8r6SeYrveHfgtvdr3Za1LvaPHmn6sjvhJxbz8JNeG4hFAAAEEELg7AgTnd8edsyKAAAIIIIDACAEL0KMqSJ7cfPPL+eV6pff3dDy7VZ35lWrxr6k50qXW6FU3L33EofyIAAIIIIBAXQj4ddEKGoEAAggggAAC9SEwPA895uXUEr3u2pTyBxTzc25OunvBq4+m0goEEEAAAQRGCtBzPlKDnxFAAAEEEEDgrgvYfPN5sfN6ovn78oKSVqc+0MaGvUpH+lVSVArk5qRbbzsbAggggAAC9SJAcF4vV5J2IIAAAgggUCcCvspqivRoS8Nbaop0a27sotqiV1QOIjqT2+CWXGuPdmp+7LyiXqFOWk0zEEAAAQRmuwDB+Wz/C6D9CCCAAAIITEMB6xVPRQa0oWGvq50F5qdzm/VG//O6lF+uNcn39FDji+qIn3IJ5KZhE6ZtlcqKqBDEnVtMt0+wV3L7JxXzsmTMn7ZXlYohgEA9CBCc18NVpA0IIIAAAgjUo8CIUeulIKpj2W3aP/i4SxDXW5rrhr7Pi19QQpl6bP2ktMmC8q7iQl0qLFdjpEeL4ydu6hfIUz5I6WqhQ1cKS7UgdsaNViBj/qRcGgpFAAEEbOIWGwIIIIAAAgggMI0FLAFcIKX9PrVEujQYbXaBZdzLWXJ3l+Gd6efju3595TnaO/Bp7Rl42j3c+EzLP2lV+sBwsr3K05BAnifXu34ht0qv9X1RJ3JbtbnhbX225VtqiV6TTT1gQwABBBCorQDBeW09KQ0BBBBAAAEEai0QSJa9fUfjL2W9uZ351VqT3K970m8o5mddEGnD3sNgnaDxVvyDpRYdzjygXQOfU0vkupL+oBYkz7rl6SpJ8N33QOovzdF7Q4/r5d6vqbs0X4UgqU81/UgtwfXwgcitTsR7CCCAAAITFiA4nzAZByCAAAIIIIDA3RCwOegPNb3oetHjfk6+V3bJ4U5lN2mg3KYtqTfVEOmjV/dmF8eTC8Y7YqdkCfUy5WYdGHpUO4ZeUjnwh908RbyigkC6mF2pdwcf12C5SS2Ra1oSP6q0+Xqlm52B1xFAAAEE7kCA4PwO8DgUAQQQQAABBKZQIJCSXma41zZQX3GO9g8+oV/0/M/qKbXrs63/qMeaf6TWiA27JoD8xJUJ5KYF2IiDU7nN2jf4aZ3PrdHegac1P3bOLVNnbmX5ulZYogv5NTqR2aqoX9Di+HHXa57y+z9RLC8ggAACCNRGgOC8No6UggACCCCAAAJTIlCZFy1ZUrjDmfvd8mrZclq7+p/RxtQetwwbwfnYFyPuZbQ4eULb0r9xAXpXcYGOZLers7DCjUKI+TkNlFp1MLNDuXJKBSXU4l93y9qtbdgvksGN7cqrCCCAQC0ECM5roUgZCCCAAAIIIDDlAq2Rq9qcelsX8qvUVezQtvRrmhO9pIiKH8+J/jiWn/L6TccT2hJ1jX6PNjfs0vHsNr3V/5wuF5brWrFDhbItl5bXYLlZp3ObZBny415WKxIH9VDTL5Twh+TZeHc2BBBAAIFJESA4nxRWCkUAAQQQQACByRZI+/3a2LDbBZTXSx26p+ENNUevu8TtPcV2Rb2CUv4Aa3OPuhBRFTQvfl73N/5Kp7KbdbmwTJ6XcHPOLXi35HpD5UaXBr89dsH1mi9LHpYfkGxvFCW/IoAAAjUVIDivKSeFIYAAAggggMBUCVhistbIdW1Jv6VckFKz361S4OtsfoPeH3xUjZFebUjt04L4GVlAyhYKWACe8ga1IbVXW9Nv6Dd985UP4jfwBPKV8ge1OvmBG5GQ9IZcIr4bduIXBBBAAIGaChCc15STwhBAAAEEEEBgKgUsQG/w+tWgMFHZ1cIyvdn/vPYOfMb1mueDlB7yB9xw96ms13Q/l83Jb4td1vb0qzqZ3awzuY0qKyJPZddzbhnb7aHGPQ1vanH8BIH5dL+g1A8BBOpCwK+LVtAIBBBAAAEEEEBAcknNzudX61phkS7lV+hKYYmyQfrjOegofSTgq6xVyfddz3hTpMe9buvI21fa79W65LvD0wZyHx3DDwgggAACkydAz/nk2VIyAggggAACCEyxQEv0ujYm92ig2Kp0pN8lM0v7PS7gtKHa1jNs4SebXHK3lth1bW14Qyez9+hw5gH3IMMyti9OnHSB+cLYGagQQAABBKZIgOB8iqA5DQIIIIAAAghMvkB79KIea/6J2qJX1Rjp0arkB2qOdLsedVsirMHvd0utWZDOJjdcfWnimDY3vK2zuXXqK8xxw93Xpd7RmtT78ryAIe38oSCAAAJTJEBwPkXQnAYBBBBAAAEEpkbAllP7VPMPh0/maaDUoiPZ+3Rw6EEtiR/XjsaXlI700oNuQoHUEO3TwthpJbysWz7NMtwvip9Se6xTPMOYmr9ZzoIAAgiYAME5fwcIIIAAAgggULcCxSCm49l79bPu39ehzANaGDvnspA/0PSyosrXbbsn1DBP8jxbOS0YHvAfzjyfUBnsjAACCCBwxwIkhLtjQgpAAAEEEEAAgWkp4EmD5WZdKSxWd3G+cuW0+kttulRYoWw5pcBFpNOy5lNeqUoiuPDEFqmzIYAAAghMtQA951MtzvkQQAABBBBAYGoEAqkx0u3WQR8ot6phoF8rkwf1UOOLavAHXEK0qakIZ0EAAQQQQOD2AgTntzdiDwQQQAABBBCYoQIRlTQ/el6PNf1Y65LvqCV6TfPi52Xro1/Mr1A5iLo10JP+IHPQZ+g1ptoIIIBAvQgQnNfLlaQdCCCAAAIIIDCmQNTLqz3aqdboVfkqyvcCF5i/3PtVdRcX6L70Ky5beXPkumztbzYEEEAAAQTuhgDB+d1Q55wIIIAAAgggMKUC1lMeV8mtdz5YbtGegae1q//z6i3NUaGcUNrv0/qGfbJM5SyDPqWXhpMhgAACCAwLkBCOPwUEEEAAAQQQmFUCtsZ5EPgqu6+oC9h9lcTa57Pqz4DGIoAAAtNOgJ7zaXdJqBACCCCAAAIITJaAp0BJf0jb0r/R9eIC9ZXa3bD2pcmjig+v823njqg4WVWgXAQQQAABBMYUIDgfk4UXEUAAAQQQQKBeBSJBUcsTh/VUy/dUCqJaGDurhkifW2btWqHDJYabHz/nhrpbMM+GAAIIIIDAVAgQnE+FMudAAAEEEEAAgWklYEH3isQhVyf72dZDP5zZoT0Dn3HD3Hc2/VSbG3Yr5Q1Mq3pTGQQQQACB+hUgOK/fa0vLEEAAAQQQQOAWAh/1invS+dxa7e7/nPYOflo2/9wPymqPXtSK1CGRwP0WiLyFAAIIIFAzAYLzmlFSEAIIIIAAAgjMVIGon1fMzyriFV1iuEQko7ifI3P7TL2g1BsBBBCYgQIE5zPwolFlBBBAAAEEEKihQCAtix/Vp5p+pEa/R54nPdT0oubHzg0H556I0mvoTVEIIIAAAmMKEJyPycKLCCCAAAIIIDCbBGJeXqtT72tR/LRrdlOkS5KnC/k1Op7ZqsWJE1qaOKqEl5lNLLQVAQQQQGAKBQjOpxCbUyGAAAIIIIDAdBUIXOAdj2ZdBUuKqjO/Uq/0/J6bh74++a4+3fodrUoeUMIbmq6NoF4IIIAAAjNYgOB8Bl88qo4AAggggAACtROwBHEuSZwnZcpJncut0/tDj+lCfrXy5ZQ64idlS6wlokOMcq8dOyUhgAACCAwL+EgggAACCCCAAAIIjBAIpKgKaote1pLEcTVHurQwfloLYmfDYe0sfT4Cix8RQAABBGolQM95rSQpBwEEEEAAAQTqRiDm5bQscURPNX9XC2LntCxxWBtTe5TyB5QLUiqUE4p6eSV9hrjXzUWnIQgggMBdFiA4v8sXgNMjgAACCCCAwPQT8FVW2u9zAbn1nqf8fqX8QQ2UWnU8e696inO1OH5CK5MHFffCeerTrxXUCAEEEEBgJgkQnM+kq0VdEUAAAQQQQGDKBGz+ecLPyNY8ty1TTutQZode6f0fdK3QoS3pNxX3s1qROOzWRp+yinEiBBBAAIG6FCA4r8vLSqMQQAABBBBAoGYCNsfcl/pLba7X/HR2k7pKCxT18y4wXxo/pqhXrtnpKAgBBBBAYHYKEJzPzutOqxFAAAEEEEBgIgKB1Bzp1urkB7LgPF6wHvND6oidVMQrTaQk9kUAAQQQQGBMAYLzMVl4EQEEEEAAAQQQGCEQSEl/UNsaXlWT36Xu0nx1xE9peeKw26kQxGVroye8TLgc24hD+REBBBBAAIHxCBCcj0eJfRBAAAEEEEAAgUAuKdzGhj0qBxF5XlmeF+hKfqn2DHzGDXt/tu2v1RzpZQ46fy0IIIAAAhMWIDifMBkHIIAAAggggMBsFvBVku+VVFRMF3Mr9Ebfb+vVvt9RIYjZO3q65Z/UHu1UxCvOZibajgACCCAwQQGC8wmCsTsCCCCAAAIIIGACnsoK5Guw3KRrxYWy5dcu5Vc4HMv0zoYAAggggMBEBAjOJ6LFvggggAACCCCAwLCABeNt0Sva0vCWrhSWaqjUpJ1NP1NzpMsNeZcnEaPz54IAAgggMF4BgvPxSrEfAggggAACCCAwQsB6xxv8fq1LvqO4l9VgqUVbG15X0h9SptyoK4Ulao5cV2vkmnyWWhshx48IIIAAAmMJEJyPpcJrCCCAAAIIIIDAOARs/nlztEsbI3tVDGJKR3o1UGrRgaFHdXDoQS2KndTW9OtaEDurKHPQxyHKLggggMDsFSA4n73XnpYjgAACCCCAQA0EbHh7wh9SYrisK4Vler3veR3OPKB5sQuK+nm3RnpTpLsGZ6MIBBBAAIF6FSA4r9crS7sQQAABBBBAYOoERuR/y5WTboi7DW3vL7VpoNSqfFAJ3aeuSpwJAQQQQGBmCRCcz6zrRW0RQAABBBBAYJoLLIqf1o7GX7ql1BbHT2h96h2lI/0qu3zuEUVVmOYtoHoIIIAAAndDgOD8bqhzTgQQ+P/bew8oOa/zvvv/Ttvd2YZF78CikagkSIJiE5tE0rYkqliSLVuyFStycuKafDmJT/Il33dyfOLEOcdJbCWxZVlSLKvEsiRLVi+gKHawggAIgCQa0Tu2z057c37v3Qu8HO4uZhc7W597MJjZee9773P/79z/fcothoAhYAgYAtMWgVmps7qj5TtaUb9fbcnTmpc5FpnlHcV56izN1vz0UTUkemwr92n7C7CGGQKGgCEwOgTMOB8dbnaXIWAIGAKGgCFgCBgCgyMQShjos9Jno6PUymFCpwvL9Wz3A3o9t0Wbs0/pnpZvKBP0DX6/fWsIGAKGgCEwIxEw43xGPnZrtCFgCBgChoAhYAjUFAHWoPMKFK05f7HnXv3g0sd0trBEx/Nrosj5bU3fVSpRsLPQa/ogrHBDwBAwBKYOAompI6pJaggYAoaAIWAIGAKGwBRDIJSSQUmNiU41JS4pqaIyQb/SQb9Na59ij9LENQQMAUOg1ghY5LzWCFv5hoAhYAgYAoaAITCjEWhIdGtDdodKYUqv5W7QmvqXtanhqchoj4AJzE6f0T8Qa7whYAgYAgMImHFuPwVDwBAwBAwBQ8AQMARqiEBCJc1OntJNTdu1tuGF6MzzxlRHZKzv7blVhTCj9vpX1Jo8qyCaC19DYaxoQ8AQMAQMgUmLgBnnk/bRmGCGgCFgCBgChoAhMF0QSAZFtSbPqyV5QUEQKldq1Cu9t2p754eVK2d1c9P26DU3dUIY85YMAUPAEDAEZh4CZpzPvGduLTYEDAFDwBAwBAyBCUCAqDivMEyov9ygnb13aU/vbZFxng5yWpbZr9mpU0oEJdskbgKej1VpCBgChsBEI2DG+UQ/AavfEDAEDAFDwBAwBGYYAqFSQV5z0qfUljyjXCKrOalTyia6FajssLB16DPsN2HNNQQMAUNAMuPcfgWGgCFgCBgChoAhYAiMIwJEz7PJbt3e9D0pDJQLG7Ql+4QWZw5KSqi33KgwDAeMdc5js2QIGAKGgCEwExAw43wmPGVroyFgCBgChoAhYAhMKgSIkM9LH9M9rV9XOUyoKdmhICjrTGGJjvavi6a/r2t4Qc3Ji0r4aPqkaoEJYwgYAoaAITDWCJhxPtaIWnmGgCFgCBgChoAhYAhUiUBr6pzLGUpnCsv0bPcDerbrQaWCgnrLTdrW/GNlg64qS7NshoAhYAgYAlMZATPOp/LTM9kNAUPAEDAEDAFDYGojMDBrna3iTuTbtbPn7dqXu0UNQbfmpE9qU/ZpZdNdtkHc1H7KJr0hYAgYAlUhYMZ5VTBZJkPAEDAEDAFDwBAwBGqLAJvCtdft0YXiAjUmOrW+YYeyiU5XqW0QV1vwrXRDwBAwBCYBAmacT4KHYCIYAoaAIWAIGAKGwMxGgE3i2BDunpava3ndfqWDfm3OPqn6ZG90AFtHca6akxeUtGPWZvYPxVpvCBgC0xoBM86n9eO1xhkChoAhYAgYAobAVEEgGRS1KHNYszOnoyPVGoIeFcsZHcpt0HM979D6+me1NrtTjYmOaMO4qdIuk9MQMAQMAUOgOgTMOK8OJ8tlCBgChoAhYAgYAoZAzRFgI7iUClE9+bBeR3LX69sXP6F9fTfrYG6z3pP4jK5reEH1QU/NZbEKDAFDwBAwBMYXATPOxxdvq80QMAQMAUPAEDAEDIGqECiUMzpTWKpj+bU6X1ykukROl4rzVAzTEmvQLRkChoAhYAhMKwTMOJ9Wj9MaYwgYAoaAIWAIGALTBYF0Iq+FmSPa1PCU2NSdNehLMq8rE+SmSxOtHYaAIWAIGAIxBMw4j4FhHw0BQ8AQMAQMAUPAEJgsCGCEszncfbO+qmX1r2pN/UtakjmgVFDUxdL8KILelOxQQ6LbjlqbLA/N5DAEDAFD4BoQmL7GuZ/uZUePXMPPw24dFoH4b2vgnNph89tFQ8AQqC0CnvdrW4uVPh4IeH41blU6yEfHqzmjPK9QCZ0rLNHOnjvVVW7T6rpdWtvwUmSgs+O7JUOgKgSML6uCyTKNEQJGTVUDOW2N80LIdioplZUwb3LVPwfLOFIEEmFZmbCgFEfbWDIEDIEJQyBUoP5yWsUgKVuMO2GPYWwqDqQgDJUql1QX5MemzGlQip/K3l1u0cs9d2l7x4eideg3Zh9VNtmp9vpXLm8kN1hz6SM+mRHvkZiZ7/wWCuWUCkEqOqZvZqJgrR4vBBIyXXkkWE9L4zwMAx3rWqCjvQuFkW6D0Eh+Epa3WgT4ndUn+rW86aSWNZ2u9jbLZwgYAmONQCDlihntvbhKlwrNY126lTfOCGA4oMy1pTu1Zc5rSgTlcZZgcleXK2V1PN+uC8UF6im36kJpYbRJXDlMSonCkAGJQphRMcyI3eC9oT+5W2rS1QSBQOovZvRG1yId651vvsyagGyFegTKYULZZE4rmk5qCbqyRdA9NEO+Tz/jPJCKYUo/Pnq7Hnn5FjWe71O9+ocEwC4YAqNFoCvIqrwgoXdtfUy/1PwDV4yRzmjhtPsMgdEjkJTO9c7W515+nzoONKkl160gsM44ekAn9s6iUupuyGrOukv6ozv+VA3pnGT2+eWHMjd9Qjc3bY+mtHeWZuvmxu3R0WqZRC6aLRhEMw/eCtil4nydLyzUrPTZ6Cx1U5IvQzqzPiSkC8VWffvA3Xp8141a3HXW+HJm/QLGtbWXEs1KLgj1C7c8pg/P+oEGTokcVxmmWmXTzziXVA7wupd072vP6b1PPqK5+YtT7bmYvFMAgcONS/Td++9SeDOakMwbOAWemYk4fREoJJNqzXXpw0/9QLcdfjmKvE7f1k7vlvUkG7SjfbN+sOYOlRNXpmJP71aPrHUbs0+rJXlBhbBO89NH1Zy6GH2+WFigZNCv2akzb5o1yGwEjmQ7lNuo9mCPM85HVqXlnkYIFBJJNeZ79a49P9PHn//WNGqZNWWyIbCnbY0euXubcrdnJptok1aeaWmcgzae42RQUjosKll+qwd50j4RE2zKIJDit6VybBXflBHdBDUEpiUCiSBUMixFa5VtOdPUfcTs4ZFW0aJ5wzxCft9sEBctAQhK6is16bW+G/Tjjl9WXaJPP9/211qaOaB0kItwzJfrdba4REfz69SaOhfdZ31kGICn+SVcXgmF0c5MpiNP84c9wc1jTDZdeWQPYdoa5x4GBi5LhkAtEOC35SbO2vTZWuBrZRoCo0OAfhlc7p2jK8PumlAEAvcMJ1SGKVB5MihGUpbClI7nV+mRjg/qxZ57I6OrKdmph2b9jealjympovJhg7pLs6J16mcKy9RTbFVT6pLN+JoCz7lWIoaBPf5aYWvlxhCAzyNTzHTlGCrDfkwMe3WKX7xiPE3xhpj4kxcBpmhYMgQMgUmDgA3/k+ZRXJsgRq1V45dgpkGQVyaRV5LN84JQ9UGPi5oPLNbvL9crV25UR2mOjvev0vniwqrLt4yGgCFgCBgC44fAtI+cjx+UVpMhYAgYAoaAIWAIGALjiwDzDOalj+ttzd9XUenIML+pabuLjLMPj5LKhVn1lbPqKrXppNp1trBUyxv2YcdbMgQMAUPAEJhECJhxPokeholiCBgChoAhYAgYAobASBHIJrp0fcNzakx2qC7oi9ajs+/Oyf5VkUF+rrhIHcV5ypWz6tBcnSosV38pq/qgd6RVWX5DwBAwBAyBGiJgxnkNwbWiDQFDwBAwBAwBQ8AQGA8EMNDX1b8YHR3CiivWlj/T/aCO9a9Tf1gfHaPGWej95QadyK+K1p8vzhyyhcfj8XCsDkPAEDAEqkTAjPMqgbJshoAhYAgYAoaAIWAITGYEgoF56mEQ6GBuk17qvkdH8tdzhk10xCxT3AthoOP51TqdX6HFdWacT+bnabIZAobAzEPAjPOZ98ytxYaAIWAIGAKGgCEwDRBwG98monXlxTClUjklouOsPWddeXe5VcUwo1CJyDgnTM41zjw/mV+pLWEq2s19GkBhTTAEDAFDYFogYMb5tHiM1ghDwBAwBAwBQ8AQmEkIlJUQ55dzRFpHaa46S7PVW2pWb9isvnKjzhcWKx30K6VCZJBfnr8eBsqVm3Qi367OwmzNSp+1owdn0g/H2moIGAKTGoFJbZwzLYsUhJNgO9GhjswaTLaR5I0aeJUzY+J1jLTs+M9vsHvjZcfzermudp18Ps9g5VeWOVh+f7/P68up/L7a6+TzZfh7/PtQZfrr0/idCAv/SNEJ7ZOgW01juK1pI0TgMt8rvGxDjLCI0Wcfii8ocTDOGCz/YPm8RIPlH67sq5V1tevDlT3UtdHIyj1Dte1q9fj67H3UCBRDFwHf1XundvfeHkXK2ZWdI9O4Rkciis5U9ojzB2oKgrKIsp/Ir44M9NbMuTddH7VAduOEIfCm8X04fhgLCYfq81erdzT3DXaPr2ewa0O172r3+OtD3T9UXUPdR/6hrvk64nmGKt/njb/7cuP3++vxcnw+f82/+zxDXSefz+Pv8e/D3ePzTJH3MOA08XBy2JgVmE1a47ykpHqLLZG49YlupRLFiQMwlZLSaSmZlBIDR8PzAy0UpHxeKpevwMr1TOZKXv4mb6nk8nJPPHHdlx0vnzzcR9k9Pe4zcvAiHy/fMYtFJ0tl2b4e8lGHr4e/KZf7kB/Z4gmZfD2USb544n7qJw+J69zT0OD+9nJTB3m5xst/T5m86urcd/397t3LSdnkpdzKuimHdpB3sOtIwP2U7THiO99e6q1sr5N6Wv/PwM05t/mwIZrC2JDoEWfjWjIEJgMChbBOuVIWs1yNiU6xy/S4JM8ncIXnKbjFJ/gCfopzBnk9n8Z5DS4lP9zlE2V53iav5yT4yI8JvHNPPC/cRlnxxHXP4dxTWRd5vWzk5brnT+r2clBXX1+85CuffZ44Hp6LK3GgDvJxj28b7yTk823gs6WaIMDZ5osyR9SWOqst2cf1Rv912td3i/b03aZzhaUqKqkwHFBAg8h8i/yzCYx2pXQyvypae369no8OXKuJkFZozRFw43tW/eU6pYOC6qPxPaaXjqUE9HF0XM8p8AAcQT+HA+n3/D1Y4j44zPPE1fQyyo7fQ354jXq4hs4J/5C8DLx7bvKyIVMu91a+4npcBs+XlbIjb5zzue7vQxY+x5PnUWRB3srr5PV5wI18lE9bSfzNi2vUzQtZSchInSTK8LjzN3koA17me/LyHk+U5XXwFzvRAAAgAElEQVTvwWSnDN9WyuFvLwvlDdWeeB1T4HMpTKmzOFvpRE7ow5HOMcTPdiKaMymN84Iyer3vBn313O+qpJQ2ZZ/WtqYfRUeDMEVr3NOv/Zr0i78ozZ3rOhk/VH6wp09L//AP0le/KnV2OrHuuEP63d+VVq50nYJOSWdAsdm7V/ra16Tt2105/PDvukv6jd+Q1q9338U7Ep8PH3bldXe7fO95jzR/vstL2chB2S+/LP33/y4dOfLmzkjd27ZJv/RL0k03uY7rOz5k9Z3vSN/6lrvPE9O6dRJtvuEG6dOflr75zTdDDiHef7/04Q87Of7u75wcf/AHV/LRNl6+UyMrr+PHXX07d0p/8Reuff/+37v3Vaukj31Meuc7Jdr7ox+5PF1dV8rdskX65CelxYulv/97h/+FC+46WLS1uevveIfU2Ojkol6w5Hn99Keu/mPHrpQ53T8F0rnCEj3Z9S7t7rld9YlebW18RDc2Pqo2pjPyjCwZAhOBQCB1lOZoZ/fderrr56JjnrY0Pq47W76tOalTA2tkayQYfAFf//IvS1u3Or6CK+L94emnpc9+VnrtNaeUwDsPPCD9wi9Iy5Y5TkM87oN7v/hF6cknpY4OJ/TSpdLDD0vvf7/U0nJFcYUbMZAZC/7P/3HlL1kifehD0kMPSd/+tvSpT7254XPmSL/3e9Lb3y4h19/8jbR795U8KGrvfa/0678u9fZKf/mX0uOPu/Hh+uulT3xCuvtuCT79V/9KgoNRtHxCvp/7OYcHcsOZHgs+f//70t/+rXTokGvH7NnSffe5sWXFiivjnS8Pvv3xj6Xvfc/xuy/LX7f3a0aAaDgGeipZUDbZpfnpY9qQ3aEHyl/Sif41ejV3g/b33axT+ZXqDxuIEamMeY7uHyTVVW7Vsfwa9Rab1JQe+M1es1RWwLgiwK78+WV6vPNhvdJ7q5qSl3Rz03bBo62p82M7vsMx6JHwB30+zh98fvRR6RvfkPbsuWJAAkY2K6GToTMuX+6MP/iAF7oYut53vyudPHkFOnTXd71L+shH3D38Tf7XX3d664kTTl/ctMndw3V4FV73Oh/54cLnnnM8/oEPSO9+t9ODPb+R/+JFJ8OXviSdOXNFBj7RZu5DFvR6DFfK9TolXI2ODOfzPYm8jCunTkl/9Vdv5mmXw40Jv/qr0o4dTr5bb5V+/ufdVWTy7Ym3hfKff176wQ+kBQukj35UeuQR6Q//0N0Hb/+n/yStXSu98YZrM3mRlUSZ3MeYxvjDfbt2XXmOtBUdm3JvvFGqr3dtQgbsg6NHnd7Ncz5/3pU5Bf/vCxv1TOdD+lnn+6Lfy02Nj+jmxkc0L31MqSA2Jk5g2yadcc5Pu1Cui6ZbHei/UYUym5os0YHcZt3Q+Ji2ZB/TwswRJVXhDaoliJAQBIAyA4GcPev+Rkn7rd+S5s2TPvMZ92NFgcLQxiOF8YjRvHChM2YhhfZ257WCjOiAdPbNmx150cEfe+xKS+gQGKmQC4RAh8NgRgnEoN6/3ymIKGQ4D+iY/+bfSAcPus6GskVnhwBQJF96ySmDKGeUBeH85m+6zyiVL77o6sKoxVDesMG17YpE7hMdmDbRThIKJgTxR3/k/sZ4R3l98EHp3DnnkHjhBdfJmQUAqba2SrfcIjU3X4m4gyM4oyhDJuCDcofcPpEfRRP5ISlwIc2a5RwdEPnb3uaUXRRJCMoTzj33OGKG3GeYcc5axEO5jXo1t1VhGEQbAb3Wd5NuatqujdmnlE10e4Tt3RAYVwRYI3u0f21kRLBO9kxxqQ70bdHNzdsjvp+VOl87Ix1jGyUEfoTD4Hc4ioQiBNfDVygmOFLhlzvvlC5dco5BFJumJsez994rbdzoHJpwP4omSilcBae98or0hS+48uCwD37QKUGMGZ/7nCsTDkQeOB7+88oe8sDnlA+/ER1hbKFMxgnywoUY3yh5zzxzxRHAvfD17bc7Tqct/+SfSP/5Pzuj2Ttl4VYvKxigVDKWoEzj3MVxSnv+9/92/Mrn1aud8xe+pm0owSjIyAD///ZvO2Xvr/9aeuqpN7cnAtn+u3YEMLlDRZPXE0VlEv1q0QXNSx3Xqvpduq3pezqZb9fh/o062L8x+txbbhbr1YkeHe9fqxP9q7QqHXP0XLtQVsJ4IYCDszgn2pn/tdyN0W/hZKFdr0bj+yNa37AjigyOiTjwDAEQ+Izo67/9txLBEfQv+Aw9FJ0WfRLHIDyCMfiP/7EzzOEoOBbdjaASXEagB17DKMShiMMRIxJ9+V/8Cxdk+eEP3feUDY9RD04AeAV5SOjpOCDhK4xHnIlwMPyG8Q0v3Xyz06HhR4JqOBAJXqHLEySDY//kT5zeTZlw3O//vvS+9znuolxkRz4wgOP+5b90sv/5nzs+xUkBj8Px3A+vDpbABR0aox6HLka+13UZU8CFIBkBpS9/+YoxjE6NTUD92A6MFT5hTIMl5cLNOBrQdRkrSDw/nhsOFoxz2ktbSIsWOccwzxEMsQd+8hP3fMmHUxheB0+eOQ5iAnxTMDFT72Bui7AxWd6Djfl6343a2vRTbcg+rbmpU5EbcyKbNumMcyZu4LlYlDms5Zl9Oty/XheLC9RTbtW54mIdzm3QpuyT2pB9JoqsjAt4dGpIhR85P0gUlldfdZ0VhQWFjag4EQJ+/BiDdHp+3BjbdFCMRBIkQGSYDodCQ0dB0cIIh5T43icUM150duqnXGShw6EE8aLj48Ei+kxnxuCFkLiHzoR8RPxRFomSe8P92WelAweckoZHEw8fUW0i9SQ6LHUOlmijbyfvyMj9ECCJ+yAG5EGJhXB8u7wiCZnTHl+Wv4/vwIV2QjAQBZEaH4lyNTj5kJH7wQDSYADgHe8n3kIUVxwR5EEGlENkIwo2k1IozUqe1Yq6fXqjf12knDF4d5bm6ERhlV7P3Sg8h+31u5UJpibZzqTHOd3a2pTs1LK617Qoc1AHcjdEm1h1l9p0urhcB3JbdEP2Ua1reEnNyYtjvy4WvoETUFTgdHjKG+cAjSICl+KsxAkKdzMOoBSSF0XJcwoKEw5PDFm4EIUS7uE674wJKKyMBTgrKRfjFZ6GmxhbGAfgvuuuc1yGEknC4YkSidKEAoaxjUOBcn3iPoxr6qMe+B35Mf6ZDYXCxxjDfUS8P/951xbykMDCT4lEfuQhP+MX3//Tfyoxc4voCXwM/8bz0yYwQSa4F94GC8YBvsNhzZhlqaYIEBvHUG9IFFWX6NPs9CktqTukNQ0v63xxoc4UlutY/9pIt+I4tROFdh3Lr9MK7b+8J0lNBbTCxxaBUGpLndGK+r3RLAjOtj+eX6OO4txoycLrDRgdj6i9bs/YRAXpy/R9ePJnP7vCgRhsv/M7zokJRxDMItCDYUuACF2XmZgY53Aoeh48gT4LT8Ct6J/wI8EbuBTjk/y8iMZjiBNphg/ha+qB90hwHHVh9MI9GLwYruinyIwjFu7kM7ou3Io+TLCG737lV5yTFb2d+pDvH/0jJzsyokNjrCI7Cb5Dl2SmLFFyjHY4Hl4nwadeNvfNW//3nIuRiw2BLCTaj7xwObLSFj+rALnQ6bmXF7L7xGeeDZwO9jgywAucPc/7vF5/5m/GBvD/+MfdcyKy/sQTbgyBt5ED/Akq8tx5TpXl+XKnwHta/VrTsFP7+m7W8cLqaK+OnlKrThfQOTbrhuzjWtvwolqSA7NyJ6BNKTyu8Y1CJkCGt1SZSuS1PLNXD8/+tNjoZE/v23S2uCSamtVZnKOThZXR2ioM9LX1L6kpWTkdi/g7r9iP9i21jOALOjeJHyNKHFPY6ZQoIihMRFJQijAIfaIDkRdlix8zERY6L+RBhJuOQR5fNkYrHZT8QyXy8uI+vI6UywvDE5JCocMohrggMTob0W86J15EvGd0NBJGK1Fp7iGKQsSFzgfB+nrI5+Vzd735f65BBrxDSJ6UqJ96aBOyVrYLhc7XQZ54HfwNBtyHUohih+wQRfwefx/fMR2USD2eRJRSZjFA8ODvy6ZMSA7cPQZvbs0o/xr4bYzy7vG6jeltLA1pTFzSrp67dKB/iy6V5ulgbqPOFRfpeH6V1jc8o43ZHVqUOaS6YIg1qeMlcC3rGfAtOY6oZUVWdjUIZBOdWp/doWRQ0M6et2t/3zadKSyJFEsUTI57Iuq3oWGHltfvU1Oiku9dLW4cG0V/9DwFL3jOrhQcpydT4FHSvvIVp7xhmHMvCUUUxRNDmGgQ4wJKHgkOIh/8CG/DRbwwVHGsokwStYCb4C0i9USIGFe8cY7yhAwoZfApHArH+3GEelDUMNq5jmEOl1Mvs7Vuu83xHgomU9eRkXGIMYH8PnlZGev4nnGCF/zLLCw4FiWYSAp4xfP7MYnvcFT4aZ4sQ8JpSltGaJwzgmNsWhodAhywxiuV6FBDplvzMsfVXn5F1zc8Fx2ldqqwQifyq5QK3LNkiZPXB51uOLp67a7xRYDd9t/W/P3Igbmr504dzG2Olgv15Zp0rrhEx/KrouUOGxt2aEHmsDJieSjPehQp3ufhCHRQeIZAFIEeZv7AQxjj8BbfwW//43+4aDW6qtcV4QkMYZbIYKCzpIfoNHoluivGLYYguhuBHriIQBDfwz9xXQ5Z4C1elVwONyK3f1E/XE95cCU8SBQcOZm9iRFKAAmHLMtIPecji5ede6mHKDRLidDtmc2KQ9PXA7x8HizF83idHg4lIa+vh/aAE2OGT3znkx+D+Nvr4zwTymdsQbfHRmCM8nVyj39xH+MV8uMQIIjHOME4FMeX9nrnAd8j80iTI/SR3jXm+euCXBTkjXSO7ru1N7dNF4vz9UZ+nS6V0DnadQidI/uMVtXtVn0SPMdcjCEKdBzsd1IYItPEfJ0Iy5HBzZqZBZkjWpZ5Va/03RpFUQAQ0M4VFulofq2OZddGA83yzH5lErloYPGDy5hLjyLEj58EEfhoM9+jLPlrXOez/9t3CP+3K+HKdf93Ne+URfJl0cHoKP575OI7pghBGnQgvGZ4EOMdjTJwMtBh6YQ4FyBVvIHXmiAWj5WXs9oyyY+ckDHlMFUJ0oA8IYfBEgorskPY7AGARxUM4gkcILiZmEIppbwWZw6qOXlBizOHtLf3Vu3tu1VH+q/TheICdZdao117iaCwZnFN/UuamzoRrWecdpBFXWjcmHbawTemDQoVbVA4J3VSNzZ2amH6iFbU7dfuntt0sH+Tukpt2t93k4gGHcuv1fr8Dq1reFGL0wejqOCYygL3DMVXa9Y4xQXFkYgy09095yIEihQcxTUUHZQ8ZvTEFSrKhhd9QsGiDLiJFwoVyh1GPevUidb7hMOTqDkcR93wGxFw8nAP4w+GM0ouTgMMY6/AkY9ZSPAnBjLl4GggYk9dKKk+r6+vUtY4NvF2D5Wf9uDIYIYWDlbqYkkWsqCcWxp3BBIqKROUlEnmIgfX/PQbWhu+pAuFBdFmSBy3No4a6Li3f9pWyF5iymtp5nW1Ji9oSfpQpC/v7d0W6cg43ztLs6KlosyYwBF6feMLkWk+al3Z8wE6mk/okxjQcAk8RZQaByDOPDiG5Y9xw5z7yIvBy8whjEiCS/ATXAofknB4wqWUCa9Q1mAprnP6z4Pl4zvk94ky4VO+4x2ZkB3nKLLj5EQe9GRvMHMv98HFBOVwXMJx7L800pmZV+PTuKxe5uHeaTvPAicBWOLUpS38XakXUzcv7AVmKfB8aA/6d7yt1AcuvK4hRahPAtWLzZCZbXJT0yNakD6q5X2vak/vrTrcv+GyzkEUHZ1jQ8PTuq7heS3NHIgCCNfQ/BHdmjoVbNaOnpyaSxh4I7p3nDI7/y1rYpmiBaisF7hUmq+evtZot1Gm6q6rfzHa6CqRCJUPkzrav0aLwsNKBBVG2rVIHe9EdF68Urz4wXtPlS8/npcoAz9+ppigNGEs07GvJVE+nRbDlM6H0kPZGKaQF0obCiIKEmQxlGEL4fCChIhA4+mcyOQJEg8dRMF0KIiP9UVEXWh3/MVzoJ2s8aGNeEErCahG7eG3xf4IGBGPd7LzPBVNyk50GQHIkSN20ol+NSY73DS3Mn2mTqcKK6Ozco/lV+uNhnValD4UObwu3zyNPnAuMBGjZLR3RRg5KB7ves80auHUawq/zXKYUEJFNacuKp3PR/zN75UlTV09bZEDiR2p2+tfEad4+BQkAp3onxUNrJQzaqXTFxh/J4Lip0TCMRjccX73eVFcmA6OUoORzH2MC3E+8vfBWUST4S2i53Aw/I1ShLGNIkrEhugTzkp4jkg5ShfTKuF9HAaUAeczy4hNiFBiiWB5Ax4ZiJwjD2VTD4owG88R0cKZyfdDKV0oepTB2IWjlOmijF8o4dR5tYS8jEG0BwcB6zCrMs4dj14qzdGTXe9WQ6IwAPnk5terwTHprtNZmNgRJnU4vz5aNsgxbGwyx/4Pr/XdqICTEwz2SffoBhOIx8k+TSxPy75pfK+Pli8wWw6D42RxjaRLOlVo0zINTKUerMCrfef5jHxMxeYFZ8BZ6JLolXAVfAE3xvP7stFXmQ6OUxGOoQx4Cn2P6DmzfuBIpnbDPcPxlS+zmndkgZcwYDFMcQLArTgs+Z6lP3AucmCgD8aRyE5UmkAdwTB0/bjDoho5xjoP+DPusOQA/JhViuOAv5kdW/kM0LlpO9PgCeKBcaVhfo0y4hjEbjvQt1JPdCYVFsfQLrtG2UIlogBBNtEV9Rt0B2TFqYXOcax/deTkWl23S6lEjR2YgdTVX6cT2qTUgeB+Hem4Xamuycm+AMW0rEKYic7uZBDhQRP4xzA6Gy5RZ3eb9vTeHilykFNRgS70ndH88NjYbiTEj5qXj+jSeZkCgyG5b58zuP0PH6WLqYNEPDDg2UwIryDr0vFMQV6s4/AJBYjO7aO7lMNnOgqk5eumI6HYEfmgDjyTTMfhOooWnY/oOUoaih3rVJgqyXeDJZQ4iJDOSP64TIPlr/V3tI+2IBMbNBFtgVhYe+4Nb66TUHpROlFSIXTa6qcFcZ2BAacFiq3HDwWYdUaQ6TWmZFBUf5jViz336ti59w7sijo5+1G8qfQnpORYtVzYONBvwqinsTnX4dxGncq3Kx3kxta5FRdigj/DI/3lhgFPaBAZ6l859/9MsFRWvXPFOr7vK7uNdDjiBL5nt2nWyJ4rLI76HI5an4JEUp3FssLirpEZ5p4XUEwwHplW6SM2XCPyC8/yQumBJz3/+Mrj71yHl1BI4SZ4BqWOezHw2TSOpUTUhTGN8cryKAxyuIsXSizjA9zFjCbGFwxsxgiUJ4xveBGlFWMXzoTjMNRJLO2BP3EAUxfjCvUToULJxThHCYUfUUy5N95mykN2xixkZoxhcyZkxUlK/chYjXGODDgzwABMcDhUkZjKDszMmPjq+buVCcIB2Cc/v1bRvEmVxTuyIp0qrFNfqSlSUrtKs6MTFF7ouXdSyWvCDI+AG9/d0am5cvZN43tPqSVaU3uyuFr5cr/C3OtaEbw6fIHDXfWOR/RN+AIjF0McXc3ryfALTr3hDD54Au6Dp9CZ0VfZswPeYxM31n5TPjohRiZ86ddgDydf5TVIBX6DW/0GngTOKBuuZko3xjhysLQIfZh64DDf1niZyE170Su5TpspfyIT9SMXYwU8zVjBGMByJuwJroGDH8cYV+B72ozN4XVongP2DWMfZdK+iJTPuLFkKGfLIG1HV+a3+ELP/Tp35l0Ky9cWgR+kilF/5c6vIEBVH9mY8CDy8p4rN0ROrYtd8/VC9/0KAsaf2o5BpTCh3rBOqb5gtnKFgeMHRt282t7I4IGCBmAY5qRIiRtQ2nrLTVHEBDCDIIhyFEr90WqrMekm/keMkU1HRmGBMNjcjU7LkTYoPHHPGnm8x4rPKCVMjWEXSzo/ef3aaxqE4sL0PxQmEh0Bw5n10/F14HQSCAtlCQKDZLgXwvov/8V1SK8MUg6RHoiDDjlYglgo33fIwfKM93e0ESJHKWUHS2YGsDsnnz1BeHJhUMBZAZHQbv+skJlpnqy7h3jw4oITjgrWhuIkucbEb5BIHzuhlwocq1T7jnuNIl++nXNu6U+sufHKWbSRUFCOdvCN2hQmI4K6fNM0+uA4hfa7fpEb4JBp1MQp2xQ4m98mG4P69cYR30dO2YR6yy1Rn4PvfcI47y3l1Vr2imaVA6jnCyIe8AwRBK9Ecg3FDKXFczUcAwcNlbxxjlLnIyjkpwx4GycjXOx38v361988FRKjHCURxYooEgokzlne4TAcu2xKhGHMNFDGJGTjBQ9iZLOxkJ8pRT2MWYwBjDsY2MhI9JprKG6sJ+e651T4lzWjTK0nMoTzk3rYjZ0TRVC0waGaRNu9Mkg0qkrnr3+yKEynCsuVhqX8s6qmXsszKgSSAZvJFSIlNAqIlLIqFQc23BpViXbTRCCQCNi9vxDx6GDjOxH0nlKobOn06MXD6IY/cPAx65I14zjymL7OfkbwDJwFn2D0Vepn8Zo9T5AXriTBS9yH7ofjEf6Ei+A9po9zLDE68kgS9cBD6NnMHuIz5fI9u7ez0SdciK7ouQrORNcmz2AJXppM+jMy0i4f1cfAZmNoHBC00T8H5AZvnhnt5R6Sxx+HNc5qloySjzzo0tg64MQSKT9WujuH+R+9Egf6bJ0qLFS5NDmOK/MCO30QG7MQBYP53n/Hrh0s++wI54yLPgzUgfJKZcPzak33KhlbCucFngzvjlhCFaPIeTaabuCVMvceRsdANSS6I0WbhkWR8+SlCGSf95ra4pUCpvZBQnRUfrgY5mwUgcFNByYhAIkoBefXomhhpPPiXrxxkJdPPj/5OB7NX/MdHkUI5Qbli7x8T5SeY8JQxPwOwpTrOx1leyIhooxnjI43mIGOVwxFDKLlOvfROb1cXs7Kd49J5fdj8Td188IzR1SJzfSYpcDac+/VpH7yQA6QELLTxrjcTIPCwAc71oGyGyfT/VHAxyDx2yJ615o8r/npq0TUxqC+sSjC9yfmo+TL9cqFWZVCZnBgzHA1UDJRUGPQqUzAMpIhBqSxEMbKMARiCPjfJr9DDIO+clO0BMNnifqbSqpP9Kgu0XvZscL1IJGIIuflRG7Arw0PV2Gge67BScl6cjbC8VFkCoZ/UT49v2Bwe+XFCxZ/h2u4ztiAkgc/ee7FaOa4HZQ+dj4nmuGVQM+ncBlRIRQgjvZBsULRRUGCm5lCyTR2DHYMeQxyOA0nJVMwGXcYi5AXTmfMoQ42I2VjUJRIZKRd3M/xkkSjiKSDBbJTD05MFDA4mOM2qYexAqfAcO2PY8Fn8oIZ7fOYVOYZ5G//5Jie6zawogj/7SA32FeGgCEw4Gh3s+D6y/XqDxsjZ7sf3znjnqm5LclOZeHK5IDeOhrs4IM/+APHKcy6hBsIeqATE4hi1g88RL9FXx4uqhznCW/wYZijwxGFZ9YphiJLHOFCdFq4ksAYdVSbqIf87LWEfg5nYqTjqERX5pofE7wDkroI/vh743WRFz73s4h8e+N5JuIzsoI7TliMaHgeRwrLRL2Bjuwk7BnGAs+v/h0HLw4QnMEkdqTHucysL8YD2u2flcsx5P/om5GunDqvxZkelUfyzIYs9doueAewBjYcLUSRc2xM9GF31ekcZdUnOqPjCOOz9a6t9qHvLoeBegp1Sm0qf013LfipWhvwDA19w0RciZQ17K+wXgdym/R89/3RmiimNwIeUZXGZGe0i+/tTd/RrNRZJRMl5cOUvtd5S0RCTF+95uR/xGyWRuQAxYUfJRFnfvwoYZWJaxiVkAvKFETz0Y+6aDs/+Mp7UKgwulHKBkueMOg4rOHzuy+iVKF8EfXhSIf/+B9dtAcFkw7HNSL3kCcyVCaUN5RPyqczorx5oqnM6/9GBo+J/26s3ykfJZHIFWQPsRDJATeUXa6Rh2maGOC0F3KlnT7xbHiRIBKi6LSVe8cgFctp4RS6u+Ubemjx8278m8T6o6cbCIdj1Pb2bdOO7gd0Jr88MsIRPamiFqbf0NbGn+r6hmcn9CiJMXhEVsQUQeDKQCmhVHKaAHsAnOhfHR0MRTOYE9WWOh3toHpj9meamzlx2f4OUoGO9s3Vd9NbIwcTv+V4mUPC4HkMboRHmBKOshJPKGmsc0Sh8MZ3/Hr8M0oc/MQaSgxbyod7PG9jIMNpjB//4T+4tdwY4+RHCaUuPsPv3At/o9jiUEQZ9VEc8uDQJeqD0xFlDNkYc8gDx2HYEzXHSIfbkR9llL/ZhwQuRYEmchLnTWTFWcGUfvJRF+MK0XumRVIvY2A1ibaj3PJOlIuxq4qEMkdalnlNn1z4KWUT/QrHhrarqN2yGAJTD4Er43tCl4pztafvNj3f/Y7oDGec7NH4HhSjvWRua/2hmhJH9PLJBdF+A6NqLTru//pfTg+Gz3C+oW/hOITH4CF4Aj6FA+CnwRI8B//AS/BWnH/hIviGF/oxOjhOSwJlRIKZhk591Sbqokw4GC6Gk9CTcZayBwdLHv/0T50e7Jd74oRgBgAcW5ngNXRo+Bl+pSyvm1bmHepvZKpFQl6eAzMQcDr/83/udGACgGBA4p1nBB58ZvzyM76wBXAo+8RY4h3XyDwYHj5vxTsBoMZEt+5p/Ts9vOQZhYWB+ivyjeefvr9QZ385q319t+j5nvujYyYJDgQBMfOSWlIXtSX7eHTakTvOtYYDUUK61Fevx07dq1RbeEir617QrCzT9cYTmirqCqRL+Xl6puvntLvnDp0urFBBdRwMovqgR6vrd+nO5m9pY/YZzU0fVyKBweZmFz+bWqKCUsJTeM3Jdx46LuvtUKL8j3uowvmBo6TROTCgiVy8//2OVPA+4fGLl0Hean/sEAIvCBFljAgHihjlMg0eBQhlEsMV4sAryLT3wYxzpsXzguDoiNwDUUIyJOSqTNRNJ+adDuzzVua7lr9950epxBuLY4N19iwnYIqllxtKNJoAACAASURBVIvrPA8USJwQvAZLPA9POoNdH8V3KJApFTU3fVZrsi9PeuOcrlAqp3W4b4P29N6mPX23io3RSPlyXbR75duafqhtzT/Uyro9akp1WOR8FL8Lu2UUCES8ndT5/kV6rPdhvdh9jy4V5keKIwNlc/KSNmafio4L4hiottRZJZKxjapSUp3mKptYO1A5vD8CBQDu9QpiXDmkNJROlDgfdYb3hkooaSih8BLGdDxxHxFulD6Oh9y40R1jyZRNotfwGMk7fikD/sYxiZHOdcqEb+F9lEuiGUSUGEuQj2gQXEhithBrQFGMWW9IxIN7aSvTE5kxBScSlcJop2yvWPI9TlpkIfKC04KyiFoRyWd8qSahcFMX4yDRNOSuKrFETWpMdmlDw7OO7iebflJVOyyTITBOCDBrtJTW631btKv3jsj5ztnNKMX5ckaz06d1e9P3IiOjvfEVXSqkdTR150hY8kpD4Buvm/EOb1QmeIiZjuiWfvmN16XjeeEnppnjaMTAhW8HS+imRLzRU9l9nDJZLjoS49yXC0ejQ+JA4Cg3pstzpDBGP0e+waVwMstH0Y9Z9jSYfo7RjtOSJUhwIg4L2gBv8j5c8rMJyDcYfsPdW801jzXPAfsDIxyccW6AOXhSL21FbsYGxgI4HhuiUq9n/AIDnr1/VSMHE3nRlYO8ZmfOanV2p6KDIaq8t2bZBkzDk7l2vdR7t3b33hFtPFuM7MZk5EzgKLU7m7+ttQ0vaXbqlIIEba+ZRETHdDFMa0+wUqlikImmjIsF+oP0rxqKMWTRYRAoV2rSsz3v1LNdD+hg/0ZdKs6L5GSq7eq6nbqlabs2NTyhpXUHoh2l2QQjkp89e8ppFVWD9bL8OFFa+GGOJEE2ePyYts7aDzbyIRqMwjLaRMfjRYTDdzyUOLxbKHEY43gWWa8D6UEilYmOhuGOYoZ3jV0q6aQomMiMYsWGQhjiKKy+3USoUfQgF5wVKIm1SpAHMv3P/+mi3kwFpV7a7QkCZRcZPvIR6bd+yymBOFLi+FLOmBNgKH6rYYhlMWALjPCnUSvY3lRu5CwO9Eb+Oj3X9c7oLOnjhdWRYU4UnXOjN2cf07amn2ht/U7NypxRJuhXQKhqotozmE/Ny+Kv+b/f1Ngh/qjFPZQZl6GyjsrrcdEq88avzaTP/DYV6Fx+UbTJ27NdD0bH+3WU5kaGeX2iV1uyj+mWxp9offZZzc8ci6a0R3wf1304UbJcHykBNYGPyAJKKM5BpggSyYGDfIKLURhR5uBOuBSlCKUunjyHohDB25RB5BrlDo7mXhQ77mVzTzgdZQpDGaUURRQeg/OYkcVnlEfugSfhfsqmHhyVcDlKJrO14s5ZFEKcuSwXQm6Mb6L1cc6My80xPMiE4oaTlDXxV0uMK+yjguPYywaGI0js6cFMimww+Wb2jaAZltUQqB0CA+P7of4Nerb7AXHOOSeRdJdbo9BUU/KCbozG9x9FAa3W9Hmlk/06V1gQLWlLjNZSQn+Es4bq056T4A2W3uAgZCYOM4riuhizGeEg9Eo2NeY4yqESdaKHUzZBL3hwtMnr0BipzJpCLoxT5EQOeJPycaKybBS9s9LhyncY9Mj+3/6b0z3hWcrC8Oc+9H24Gg70CU5k7Tw8zDVkqFWiDpyiX/qS9K//tZuBipOYsQQ8wYHlo+jWbL7MGMasKZ5bPPHM/PgV/76Kz04VCqJ155GuPMG2Js4CNrx8ouvderHnHh3JrY/0YQIBnGK0oeGZyMZc37BDizKHo6WeAW2P6xxVtHvEWXCwhRkVlRFbC1Y7AXDE9YzqBo65Ltdrb98t+s7Fj0dHpbFjHkcerax7RZuzT0SR8hV1+9ScuuDOYY4ryNHnGrWJH3G1KZ4XhQdlDgUHYsGAxiimU/pUzQ/fk4l/517uY3oi0w1R5FC4ULKYKsn0FYgFcvjt33ZrTTzxQRrk5YVHjc3WmDaErHRKjG4iOu95j7uOM4HOjCLJxh90YsgGo3iwKEq8/fHPvr2+DfFr/jufx7+jbP7oR276JsoeiirE5++FpJGfKZqQ/B//scRGS0TcIT0UZBwUfqdgf58vf7q/B9LJ/Eo91vle7eh6KJrmVlIy2qthTd1O3dy0Xddln4vOe8QYio4XGyUJjwmUzB7j+NT4LDLI3PuyfOCSPUWqIXm6rV9GRBnVEKyXgfLJH+cYGsl1yuQaL+pAZvJRh69zsPq4lwkp5PH3jwlwU7OQi8X50fTL7R0f1rH8mmidOb/BVfW7o98mA+SSuoNqSl6Kll1Eg+SQTQXUESbPO8PxAooakWN2WP/1X3fRcb/EiYg7S2Z+7/ecIYohjLMTvvTGeWXZ9C8UP4xcliShqKFAYbATsWDtOBEdvkdpwjmAw9VzLXlQAJlmiHEOR8LfKIaMCZSJvChfjAdMa4wb59RPmUzZxAELPzKGcC+pUl6WW7FEi/EAniUajlLuseM+ZPK8wbjDWk72CWHMo37GFH+9ykdEd8J5Y8kQMASGQCBQdIrFzzo/oOe636HzhUVifMfpvrb+JTe+NzwfOTYJbrnxnbLcLh9DlDr0177P8w6/DJfgN2aJom/Cm/R/1jzjROQz3MY6aKLPcB7T1NFnOYGIDZfhND9TB/0Nw5m8cBmGPnpgPHne8jLGr/E5ft1fQ+dFFycqj/7I/lDsFI9++7nPOYOWmZsEqeB8DHl0UPgV/RmOZnYRs6GIOGMME4xjzCBgxOwmnK5sYgdnEqUniARHcx+8WmkIe9mqefdtqszrvwdn5EL3BzNmVHmj3OfBNsEhgaME7MGEvzHaGVvAnmdIu0kj5PHLolXqUZcvjO8H9rN5rPNh/aTjlyN9mJOL6BvX1z+vLY2PaWP2aS2te10cr5bCeTXucgeROjm+qFyttmjWAF6NWdHcf3ZrXZQ+rPXZHdrU8FSksM1Jn3KbVaGZjwdoKBf8iP0Perg2MFWGvLz7qdf8kCETiIqILsoQJINRzPd0BDyLHBfB8Ws+ofAwnZJNhOjwRO29LD4P75AIR9zQqYhq0MEgEDo+nr0PfMARHQqTP0qBqApOAvJhyNIJfSQIckQRpCOynpH1OOx8Tj1MJcKxgFwQKUooXsx4or2+04PBYATu8USxjV8nPxH7eDspD5k++1lHEJzdiCJINB9cwBAyZP0TCidkCQZEhVBgwQDMeWeaFc9ghiXI6Gxhqc4XF0Xn1q6t26XN2SejaCROr2zSkdAoh+uxQzMhvXFaeuoV6bVjUk9OashI65ZJd2+WsvXSN5901T10szRvNjt7D2I8D0jElhNdndKPXpTOd0p3bZTWLpXS3pCOS46ewZYFOemVw9Kz+6W1S6St69y47D2+pbJ07oL0t49KW9qlm9ZIvf3SE3uk1kbptg3S6YvSY7ukbddLGziAIWbAnzsr/ZSgabd063XS5nY2NBu6DXERp93nQNERafwuOTaL4zGXZl7XlsbHtSG7Q6vqd6kldUEZ9V/euX1MMYB74FVenq8HqwCuZuNPeIe1iZ/4hIuYYGAzRRJFC35BEcU4Rwkib3wsqJx1hVORzXaI1sBpjAEY5/A+fIdiinwohSh3GOZ+zR9jBgoXYwr3wYVwOPm4BycmZXIdpRMnJUpWPKGs4cSFG5nuSKSeumhPJS/jXCZyj8LMOEJ+pqlTL/Uhwz/7Z27DJviav1FCkRHHKo5S2mvJEDAExhwBjkCFP88XF0Y7Tq+tfzEa31kCtKJ+nxvfw0o9bZRiwJPwBNzm9byhioLHCBKhSzIDCH2SIJLnAjiCJTvoqgRY4D+4De5Ez0SXg8vQN3EIwjtcZ/kO5cKVPsFDfmkSMsJD8YSsXofmupedMuBrosXUha6LTHAns13hQwJSOBEIWMHD6KcYqwSrMMpxPmLge47F2EYnpz6WHaFDEyTDmYBuiu5NfUSzPY/GZeWzH4+o38vq8/A3L9qMLD7xN4nv/Gf+RkdH12cjacYFnMbozh4jxhV0fuTFAc0Yh/MBZywczywoZo1hI+CopSye0RRNJaWi/nKmsDSamUUf2dTwtAv81u+N9i9jM9LhAwG1bTwq6qRLeCpQ0Nhoi3W9RMnxAC7IvBF5Mti0alwTBiiEQCfCQB0u8aNFQYOUUOh8otNiGP/Zn7kp4RiIfEe0BKWP6Ac/9rihC2lQLx2I71G+KJd7ITdPTBindBg2ssB45hr3oRjhAUQxg1RYZ0IdlMfGHezYyw7FRFaI8tBZSbxj5GJ8Y9ziTaR+vkcZpX4UOcjFk6xvJ+/UgRH8+c87vPCIxhNyQ17IC+kin5cJzySGNmV7ouNerhN5wQAncgNJQOiQCuUhp48soUSynhIMuIY85KUeppuikM6kFEqzkmejTS0aEx2qS+SipSFrGl6OSKg+6HVR3IqxbEIgSkqnzkt//6gzpjF2O3ukN05K7QukMxelT/2ddNN10gO3SgF7Q5KgBE8LsJrfKiEtFS9KP3lOeu2otHKutGalpPoBY5ixfeC0pzPnpO27pLs3SPuPSH//M+n+rVJbs5RMSbObpbmz3U/qQof0he9JH7pXWrdEutgl/XCHk/3QHVJdWvrW41JdStp9VGrKSD190qkO6fBx6fQ5ad1SqbiafQCkFPJOBvwH4By3t1BRhGdd/Yvqb2mITuNYVbc72vRtVvqsskF3tDFLzbDBAP7yl53yyCygOOfEQYBD4GreifpgfKIc8TfcCL+gnDFWwHcYySTGCyIoKGXUBU/5BJdzNBrl4JCMjxeUS3l/8idOOaTMOOfDbSiU7DdC1IP64GvGArjSK2IomBjh8XHF18898C2cTvmMF2CAPPArBrlP1EeEh2mslA9/0ybKRvFm+jzYec5ljAAvHAOML9RBmywZAobA2CIQSrNTp3Vj9lG1Js9FOjL68qqG3WpNnVOdKva+uJba0afQG9nbiL5OJBg+GCqhM8IjGLnkxTDH6ORe7kOPhEvQ9+ALONF/j17M9G8MTeqlHDgQ/oV34Jh4Qof1s5bgYx9sIo/XEeE79HD0QLjYy45uiKMUfoND/ThAnUS8KYulnMhCmzBYkR2+R8eGq+FT6iHBt+iZOBHgdZwKXONe8ENH9UuJvP7r7nT/Uz8yfupTjpP9eOLzoPfSxr/4C8f//nvGG+wPOBx8fPt4Bx8cIEzBx9EBJ2MHIBMJnZ/ZWsjLVH3y0A7uRU9nrAJ/sOcZ8AynaMLwxhgvhHXR/JHV9S9rTf1OzU2fuLIr+zA/6/FodvBXn/5o+PCyb2huI0bOeFR59TqYxsaB9eeKSyKdrCV5MZrSGE0vuNrtUSQmoy++8i6VvxbofY9v19z+2NrAq90/2HUUD37QdBA66XBKBp0brxs/XDoKHZ1EZ6Fj44GiLIiKHzxeMcpHwcFr5b1l3EOnoJPSyehA5GOtCOtekAOC8In7ON6Acuhk3mjlOhEd7kU28iEL5VEO5MO778S+PN7xvHEPBr+PpPj7aBtt8B07fh/l00baSueO40A+rlMeXkeuIy+YoqByD+8ofpCnJztfPtNrwID7wCBOiOQBQ/DHMwi2tIEyyA8m3MP7YO31dVT5frhpsb7zzrs1970X9Uurf+CMqwnu0EOJXgzT6iq1RevQOEO6NXlB2URndJ5tzQyfoYQZ7vu09PiL0r/7jLRojrR1rYtid/VKD98pPf2K9JnvSDetkz7ykNTWKmVS0gpm5y5zP629R6QDbIjNNgOB1H1B+uKPpRPnpPffJW1aK2XqpHTSGd5Ex1cslB5/Xvp/Pyv95rvdppJf+rGLgi+dL504L7UvlFaxsXW9lAmlD///0scelD75bulCp/RHX5Reel3a2O5mve8+LD24TerolRbNll7Y736SyLxhuXT7BmnDSmnWwCkzk+o5DPeMxvgaUzB7S5xdPidaM96aOq+WxAUpGMHmKynpYO9Sff4n79VDf/uEbj/08uXzSocVFy7BaQlPwDkoh5WcEy8ATiE//OY5ES6BX1Cy4Lo4J/r8XukjD3l94jpTy+Et+A4ZSHAkPAinw9lwNOOFVxrJ48tGFsabuAEMT1In/Ei5Q41ZKGDcj0zkpS4woTyUufgYQ3mMI2DleTTO2T5aAx5gwNhHe+NjkWvdVf/vTTVox+pN+u6v3qX/7+1/rsYkm9Vd9TbLYAjMSAQY3+HPnnJLtPEWHJpN4CAcgkOT0hu5Rfr+83co87WCPv7st6rDDV4iag6/0M+JIldjpMEZ6GTwB5zB3yTuhfPgTTgunuAl8lMf+akPPoLP4OnKej2X8u653OdBbq8boiOju8JhcV5ET4aLSeikca6FJ+F9ZIEjPefDmejQvp64/HxGFtqBXst4gRzkhRtxhg6ne4MXOCMn+MTroC1cp1xkwMHh62PMIMHfcG88wdFc5xnExxTa4xNt9PYC+ZEZPgcrcAP/ODb+vmHe98xZo+33bNOsD3bpYyu+PeEbwrHmHJ3jQnFBtOlxS/J8dPLXuAd+KzFLSmd7GvWtNz4wCae1o5cojLwXyzIDa7KHmbZa2baa/I2CwauaREfhVZn48fPjphP5jkQe31Er8w/2N52N12CJzjNYFJu8dNDKTjpYGZXfoaRCcl5hrLw+1N+0FULhNVjiOiRLdCee+A5SHC5BaLyGSuAJWfKydBmBVFCIdmNv0xkXJecKfBzj5MuZJ/gDU7yJJGOcY3Bj+L52XPqHJ6X9R6WFs6Vl86X9h6TXj0l9/c5wXzRP6umXvvlT6WcvSysXuXGxh3G4SyoQbDwu5Zg1V3BR7vqM9KH7pBULBuBgSdxPpSXzpE5O1zouHTzhptczlj23T5rdIv3826SGAQOfsYsXU+WZMn/9cicn9VEP0+L5ab96THrXbW6W2+aV0oKsVIfOgQN6Ej6H8foZsAayOXkxel1eXjxev02UDV7VJjj8ahwUL+tq+bmOgluZ4Eh+cJXRoXi+4cquHGfi98U/o/TxiqehxrrBxjZkGOn4EK/LPhsChsA1I8D4zm7Ss3XqzeP7NZdcUQC8hGFZORuyIttb/kSXHE4nfMsNcgY4Rni1aSgu5X7kxgE5nH45nJ48GE9WIxcy4VTlNZJ0NbzQcweTifqYLTVUAoP4DK3B8jHuDGVLDJZ/Cn7HhrLsYcNrsqYB99VkFW9ArhmsuE7yJ2PiTUUExsvwGSU2bBJfDqVjZ6U9h6VDp6Qj7Kd4yE0Bx2B/23ppxXypP+++a22WGlma2+vyM8381g3S+x9yhjuRcaal37VJev990ttvkpIJV+apC86w3rRO+p1fdA72XQfduvHenHMSvPMWFxFnPfyhExxZ4wxyb0x6SJkCj3xE2XEwYLC3cwxqi1s7j8O7nJCOXZJ2H5GOnnFl+XJGCdn0uc0DOX1aZC0xBAwBQ2D8EDAOHT+srSZDoEYITMo15zVqqxVrCBgCkx2B0G361r7YTWfHKC+UpPUrpK3XSZmk9Ow+6XGOSw7dbLeHb5Pu2ybNaZUOHXXrvYl833ezdMOdUs8B6bs73Jrv2zZK998tHTwm7dznNp3DgCZaz6zdG9dJGOTfecoZ55Rz91YJec5fdNFyZqoRKY8n/uR14qyLrh854yLvRMvzT0kLmX6flp7aLe096jaxWzZPemibk5Myo03j4oXaZ0PAEDAEDAFDwBAwBAyBGYWAGecz6nFbYw2BSY5AWVo6V/rEe6TvPCk9+bKbwv7B+6TrVknHjktP75F2vu4iznNZzsWGbXVSf2xNaq5fOnlOamOD69NSd5/Uz/HRF9zmchjRrGP3RjaR8IOHpD/7hlvqfK7DTZffd0RKJN1u8Y11LqJfYZdHgBKsIDHlHZleHzh+lYj9tg1SX7ebWYeTAbn2HXeR/Dltbv37TJ7WPgCdvRkChoAhYAgYAoaAITDjETDjfMb/BAwAQ2ASIZCQ9h+TUmlp40q3TQNrzFkb/vWfSjv3uynjH31AyuWlx16Wvvm4RKT6g/e7vVoIYbNW/L9+RZr7I6m3x23UhjH+6W9L//C0M9bZvZ19ZjC2Wd/T0iRtWuPWh5++JB0/Jy1kd/fl0rIFUj53ZTnfWxAbsM7ZPG7NUun5V90St64e6W3XuUj9vFnSw3dJrx6R6jLStuukG9ZKWXac55Srwaz+t1RkXxgChoAhYAgYAoaAIWAITFcEzDifrk/W2mUITEUEUtILr0m5PikRSIdPSs/vkw4ed2eJEzVv4ijmtJQvujXjbBi3cqHLXxowcNkYdfEcaekSqavDGetszragTWpf5M4YJ4JNRJ29Ylgf3r5a+v3bpbBH+qsvSBjWDz8o/cqHpKAoPfMzByj5K1O0KZyklw+46fhMu2ejuu8/49rwjpudPByxRgS/vyjlCgObxVKeGeaVkNrfhoAhYAgYAoaAIWAIzDgEzDifcY/cGmwITGIEQrdmnPXXTDUnsj2rRdq2XprVJB05LXV0S3UNUpZrTVJzVrpjk7R6ibT3DbcWnQ3ZfvP90ubbpd6D0oUuaf8b0q89KN19l3SYaedfkn7ygpvazsZyu16RvvKoVCpIuw84w/8vvyLteEGaxelS/VK+5DaSq0Qwmh4fSC++5mTasEK61CPdfYNUKro18k1Zt2bdn8RCGYPY+ZVF29+GgCFgCBgChoAhYAgYAjMEATPOZ8iDtmYaAlMFgSiIzNGaZYmp4Nctlx661R1pRrT83puk3/19iSM4P/9Z6dFn3DFp8fYRCWf39qZGKZF1u6azOzvHnzU3umtsBOeTD1wnStLJ89K+N6TlC6Tl86UER8UWXR09fVLPwNpzf69/J6LOmvN7b3SR/O0vSm/fLN1ynfQbf+ycCHOanSyDRd99OfZuCBgChoAhYAgYAoaAITAzEYippzMTAGu1IWAITCIEAhctZ415KuHOF39il5v13VjvoupMHf/6N9z68ud2u7XnTIHH4CXSTuLIsy98T1q+T+o+K+3Y6841//J2adcx6XyH21QuMsqZ1p6W1q2TPtkmferLEseMvu9O6RfulZpnSclQOnvabU7X1iLNa3X1cNyoP/qN+m+9XvqVh6SunPTkbudcYB16qSTNb5OauC/hNpZzJdj/hoAhYAgYAoaAIWAIGAKGgEPAjHP7JRgChsDkQCCQykXp7CXpwDG3ZpszyImCcx44Z4WzbpzN2l7Z66aXc+a4ym4KPFPEOR+dNd0Xu9009m7OQc9L1y+TVi92+fYdki50uHKIzhON5yi1TCgdOS49s0+6ed3AUWztznCnjvn1UlCWXjogffspF2EnUl5XL5W6pL681NkjvbBPOnlR2n9U+t4z7qz2YlnaskpqbpNyJed0oC0WQZ8cPz2TwhAwBAwBQ8AQMAQMgcmAwLQ2zlPlktJo+5YMgRogwO8rWS7VoOSZW2RYkNqaXOQaI/v65dKN10vrV0m9HRLnnjdmpfvucpHzRXOkU2cldnRPBVJzvbSp3e3u/sCt0sKlzqDOcJZ54M5ML4XS+fNuyjpT2NmJncXfxT53zNrKBdKHH5A2rpYigsy750Ekn8g8jgMcCFvXSjetkxobpeYeaXO7M8T3HHLRfDapO33RbT7HVPc7Nzn5+B7jn3fksoXnY/N7DxUoCEMlxCdbzT82qE5MKYlyWeli0fZJnBj4rdYZgEC0D2nI0aHGlTPgcU9oExNhWUmmI0ab80yoKFOm8mlrnBfKSV2sm609s9eoqdQ7ZR6ICTp1EDhdN1vn0m1qYXtvS9eOANPSJb19q7RyudvNfOEsae1SaU6rdOmi1DLLnSO+pt3x/Lp50pmLEvnqktKiNum997po+MblUpZp5JW6RyD19Uo3rHLR8xXzJDagSyekreulte3SDWukljoXlff3s2Z9bpt0x00SBj7r1zevlhpSbhf4990n3XLBRfyZZs+a9gK+m1BatVBat0iqK0t3bnbr6Oe1SJydTt2Wrh0BlMxe1etg81Jl5/aZYXftkE5YCfkgrcPNS9QfpidMBqvYEJjOCAShlFNGZ7Nt2jl3nfHldH7YE9w2xuTz6VlqKvVNsCRTp/ppaZzjpWmp69HBtcv0eMtWNYQcImzJEBhbBDqTjepZXK/mVM9bDcCxrWrGlIZjddMqadO6gePFypIKkvISa71vnz1gMA/421bMl1YsGjBwi9KsRmnW2oF7uQ+/id/tLYZiQ0Jav1Janxwov+DOHt9KvXgIiJZXGM0c39a+WGpfGSso5+RpbnBnlt9AeYPUJybw8CpJqxdJq5dekdkb/7FS7eNIEWCX/zCvxtY+vbp1hc5dNyuKoI+0GMs/ORAoBCldamrW7IZOJdnUwZIhYAiMKQIZ5ZVtyungdUv16IJbBh22xrRCK2zGInAh3ar+RRm1BZ2mK1f5K5h+xnkoJVXSDfP2q/62vHqDegW4CC0ZAmOMwOywQy3q1oamg0Y4Y4ktRjWvyoSxXGEwXzZ6fV70+IFp6NFXgxnKXBgsHzQRv9eX6d+57o1s/51/v9q9Ph/vQ5URz2OfR4ZAWZqV6tJ9q5/VyZVzVUokTNkcGYKTKjcLE5aUT2tJ8ozSAbsuTirxTBhDYGojUJZakj26acleNbX1qphM2VKgqf1EJ7X0s8sdag26tbH5gNO9JrW0k0O46WecE/gKQm2Yc1Ab5h2cHCibFNMbAQxGC+5M72dsrZvcCIRSY7pP9yx9bvCZC5NbepNuKAS8Q8yM86EQsu8NgZEjEErZZE5b5+3T1sS+kd9vdxgCo0HAdOWqUZuWxnnU+sGibFXDYhkNAUPAEDAEphQC3pCbUkKbsIaAIWAITBACpidPEPBWrSEwPAIDpwIPn8muGgKGgCFgCBgChoAhYAgYAoaAIWAIGAKGQO0QMOO8dthayYaAIWAIGAKGgCFgCBgChoAhYAgYAoZAVQiYcV4VTJbJEDAEDAFDwBAwBAwBQ8AQMAQMAUPAEKgdAmac1w5bK9kQMAQMAUPAEDAEDAFDwBAwBAwBQ8AQqAoBM86rgskyGQKGgCFgCBgCjHORbgAAAtJJREFUhoAhYAgYAoaAIWAIGAK1Q8CM89phayUbAoaAIWAIGAKGgCFgCBgChoAhYAgYAlUhYMZ5VTBZJkPAEDAEDAFDwBAwBAwBQ8AQMAQMAUOgdgiYcV47bK1kQ8AQMAQMAUPAEDAEDAFDwBAwBAwBQ6AqBMw4rwomy2QIGAKGgCFgCBgChoAhYAgYAoaAIWAI1A4BM85rh62VbAgYAoaAIWAIGAKGgCFgCBgChoAhYAhUhYAZ51XBZJkMAUPAEDAEDAFDwBAwBAwBQ8AQMAQMgdohYMZ57bC1kg0BQ8AQMAQMAUPAEDAEDAFDwBAwBAyBqhAw47wqmCyTIWAIGAKGgCFgCBgChoAhYAgYAoaAIVA7BMw4rx22VrIhYAgYAoaAIWAIGAKGgCFgCBgChoAhUBUCZpxXBZNlMgQMAUPAEDAEDAFDwBAwBAwBQ8AQMARqh4AZ57XD1ko2BAwBQ8AQMAQMAUPAEDAEDAFDwBAwBKpCwIzzqmCyTIaAIWAIGAKGgCFgCBgChoAhYAgYAoZA7RAw47x22FrJhoAhYAgYAoaAIWAIGAKGgCFgCBgChkBVCJhxXhVMlskQMAQMAUPAEDAEDAFDwBAwBAwBQ8AQqB0CZpzXDlsr2RAwBAwBQ8AQMAQMAUPAEDAEDAFDwBCoCoEB4zysKrNlMgQMAUPAEDAEDAFDwBAwBAwBQ8AQMAQMgbFHIBWoLAWhykEgBWNfgZVoCBgChoAhYAgYAoaAIWAIGAKGgCFgCBgCgyCADR6Ewi5P9RTSutjXoGQQCjvdkiFgCBgChoAhYAgYAoaAIWAIGAKGgCFgCIwDAknpYm+DsMtTO87fqefOrFddahwqtioMAUPAEDAEDAFDwBAwBAwBQ8AQMAQMAUPgMgL9RSlMzVaw88DpsFgKFTCt3ZIhYAgYAoaAIWAIGAKGgCFgCBgChoAhYAiMGwJhGCqVDPR/AXTSO0DOYxxGAAAAAElFTkSuQmCC;" parent="1" vertex="1">
          <mxGeometry y="180" width="999" height="451" as="geometry"/>
        </mxCell>
        <mxCell id="qmNNlYz3ffC6C_HSxfAD-2" value="&lt;font style=&quot;font-size: 14px&quot; face=&quot;Lucida Console&quot;&gt;ipvsadm&lt;/font&gt;" style="rounded=1;whiteSpace=wrap;html=1;strokeColor=#001DBC;fillColor=#0050ef;fontColor=#ffffff;" parent="1" vertex="1">
          <mxGeometry x="410" y="200" width="110" height="40" as="geometry"/>
        </mxCell>
        <mxCell id="qmNNlYz3ffC6C_HSxfAD-3" value="" style="endArrow=none;dashed=1;html=1;entryX=0.5;entryY=1;entryDx=0;entryDy=0;exitX=0.465;exitY=0.51;exitDx=0;exitDy=0;exitPerimeter=0;strokeWidth=2;strokeColor=#0000FF;" parent="1" source="qmNNlYz3ffC6C_HSxfAD-1" target="qmNNlYz3ffC6C_HSxfAD-2" edge="1">
          <mxGeometry width="50" height="50" relative="1" as="geometry">
            <mxPoint x="450" y="290" as="sourcePoint"/>
            <mxPoint x="500" y="240" as="targetPoint"/>
          </mxGeometry>
        </mxCell>
        <mxCell id="fCWeBuKeWO7sgwU5mn7v-1" value="&lt;font style=&quot;font-size: 18px&quot; color=&quot;#ffffff&quot;&gt;公众号@Linux云计算网络&lt;/font&gt;" style="text;html=1;strokeColor=none;fillColor=none;align=center;verticalAlign=middle;whiteSpace=wrap;rounded=0;" vertex="1" parent="1">
          <mxGeometry x="360" y="510" width="210" height="20" as="geometry"/>
        </mxCell>
      </root>
    </mxGraphModel>
  </diagram>
</mxfile>
